<svg aria-hidden="true" style="width:0;height:0;position:absolute;overflow:hidden" xmlns="http://www.w3.org/2000/svg"><defs><symbol id="tick" xmlns="http://www.w3.org/2000/svg" viewBox="0 0 195 177"><path d="M87.7 8c-6 1.6-11 4.5-15.4 9.2-4 4.4-4 4.4-9.9 4-8.5-.6-16.3 2.6-22.9 9.2-6.9 6.9-8.8 11.3-9.3 21.1l-.4 8-5.3 5.7C18.3 71.9 16 77.7 16 87s2.3 15.1 8.6 22c5.4 5.7 5.4 5.8 5.4 12.2 0 3.5.7 8.5 1.5 10.9 2.1 6 9 13.8 15.6 17.4 4.7 2.6 6.4 3 13.3 3h8l4.3 4.6c6.2 6.6 12.7 9.3 22.8 9.3 6.8.1 8.9-.3 13.7-2.7 3.1-1.5 7.3-4.6 9.4-6.9l3.7-4.2h7.6c9.1-.1 14.9-2.6 21.5-9.2 6.6-6.5 9.1-12.3 9.3-21.6.2-7.6.2-7.7 4.2-11.3 2.2-2 5.3-6.2 6.8-9.3 2.4-4.9 2.8-6.9 2.8-14.2 0-7.3-.4-9.3-2.8-14.2-1.5-3.1-4.6-7.3-6.8-9.3-4-3.6-4-3.7-4.2-11.3-.2-9.3-2.7-15.1-9.3-21.6-6.6-6.6-12.4-9.1-21.5-9.2h-7.6l-3.7-4.2C111.5 9.4 98.1 5.4 87.7 8zm15.2 15.5c3.8 1.9 7.4 6.4 9.7 11.9 1.1 2.5 2.2 4.6 2.5 4.6.4 0 2.6-.9 5-2 5.2-2.3 12.9-2.6 16.8-.6 4.7 2.5 8.9 8.1 9.6 12.8.5 3.3.1 5.9-1.8 10.9l-2.5 6.6 5.2 2.2c17.6 7.3 17.7 26.9.2 34.2l-5.3 2.2 2.5 7.2c2.4 6.5 2.5 7.6 1.4 11.3-3.4 11.4-14.3 16.1-25.7 11.2-2.6-1.1-5-2-5.4-2-.4 0-1.5 2.2-2.5 5-3.3 9.1-11.2 14-20.6 12.7-5.9-.8-9.9-4.2-13.2-11.4-1.7-3.4-3.1-6.3-3.1-6.3-.1 0-2.6.9-5.5 2-9.2 3.5-15.7 2.4-21.3-3.7-5.6-6-6.3-11.3-2.6-20.3l2.2-5.5-7-3.5c-8.7-4.4-11.9-9.3-11.2-17.6.5-7.1 3.5-10.9 11.6-14.8l6.6-3.1-2.2-5.5c-3.8-9.3-2.8-15.4 3.4-21.1 5.9-5.5 11.6-6.3 20.5-2.9 2.8 1.1 5.3 1.9 5.4 1.7.1-.1 1.7-3.1 3.6-6.7 2.5-4.8 4.4-7 7.3-8.7 4.7-2.7 12.2-3 16.4-.8z"/><path d="m101.8 75.9-14.5 14-6.4-6.5c-3.5-3.5-6.8-6.4-7.4-6.4C72.2 77 63 86.2 63 87.4c0 1.3 23.2 24.6 24.5 24.6 1.6 0 39.5-38.3 39.5-40 0-1.7-7.9-10-9.6-10-.7 0-7.7 6.3-15.6 13.9z"/></symbol><symbol id="computer" viewBox="0 0 32 32"><path d="M1.044.087A1.63 1.63 0 0 0 .206.8l-.175.294-.019 5.5c-.019 5.969-.025 5.775.325 6.238.087.119.312.294.487.394.331.181.338.181 1.569.2l1.231.025v2.55h3.725l-.256.531-.25.525-1.106.006H4.625v5.613l-1.2.025c-1.112.019-1.231.031-1.5.163a1.745 1.745 0 0 0-.775.8c-.069.169-.087.731-.087 2.712v2.5H-.012l.025 1.012c.019.981.025 1.031.194 1.313.194.331.494.587.838.712.369.125 8.894.125 9.262-.006.381-.131.65-.363.856-.731.175-.325.181-.35.181-1.3v-.969l-1.031-.038v-2.45c-.006-2.637-.012-2.712-.338-3.137a1.907 1.907 0 0 0-.494-.394l-.325-.169-3.469-.038v-4.619h.994l.037.231c.169 1.1.431 1.669 1.063 2.306.512.512 1.125.85 1.813.994.65.137 12.162.137 12.813 0 1.344-.281 2.481-1.387 2.781-2.706l.075-.325 1.044.012 1.038.019.019 2.05.012 2.044h-3.625V32h8.25v-9.313h-3.625v-5.125h-3.1l-.137-.456c-.081-.244-.156-.488-.175-.531-.025-.056.231-.075 1.188-.075h1.225v-6.188h2.563v-.994l-1.031-.037v-1l1-.031c1.094-.031 1.313-.094 1.663-.481.413-.444.4-.306.4-3.644V1.094l-.175-.3c-.2-.344-.575-.637-.925-.731-.156-.044-1.625-.063-4.163-.05-3.887.019-3.925.019-4.175.156a1.578 1.578 0 0 0-.712.769c-.125.269-.131.4-.131 3.188s.006 2.919.131 3.188c.169.375.4.612.775.787.281.137.394.15 1.238.15h.919v1.063h-1v1h2.563v5.188h-2.056l-.469-.338c-.256-.181-.606-.381-.775-.444l-.306-.113-.038-.506c-.106-1.613-1.194-3-2.788-3.563-.475-.162-.619-.188-1.256-.188-.825-.006-1.381.131-2.05.506-.419.231-1.088.819-1.325 1.162l-.137.206-.45-.156c-.381-.131-.556-.156-1.225-.156-.681 0-.844.019-1.287.169-1.006.338-1.912 1.106-2.381 2.019-.131.262-.281.463-.331.463s-.287.088-.531.188l-.431.188h-3.85v-1.5h1.081c.588 0 1.2-.031 1.35-.069.381-.088.787-.387.988-.731l.175-.294.019-5.531c.012-5.019.006-5.556-.088-5.806A1.666 1.666 0 0 0 7.419.17C7.169.032 7.113.032 4.225.02 1.881.007 1.238.02 1.05.089zM7 1.125c.138.075.25.381.25.694v.244H1.062v-.375c0-.669-.206-.625 3.037-.625 1.694 0 2.825.025 2.9.063zm23.813.063c.119.119.125.206.125 2.063v1.938l-8.219-.031-.019-1.781c-.006-.981 0-1.844.019-1.925a.673.673 0 0 1 .156-.262c.119-.119.225-.125 3.969-.125 3.762 0 3.844 0 3.969.125zM7.25 5.688v2.563H1.062V3.126H7.25v2.563zm23.688.849c0 .425-.063.556-.319.644-.281.094-7.269.094-7.55 0-.244-.088-.381-.338-.381-.713v-.281h8.25v.35zm-3.063 2.244v.531h-2.063V8.249h2.063v.531zm-20.638 1.9c-.019 1.356-.019 1.375-.169 1.531l-.15.162H4.155c-2.7 0-2.769 0-2.931-.131l-.163-.125V9.312h6.194l-.019 1.369zm12.107.782c.462.131.725.25 1.075.519a3.055 3.055 0 0 1 1.212 2.931c-.038.262-.063.488-.05.5.006.006.225.063.481.113.613.131 1.038.344 1.4.712.394.4.519.6.663 1.069a2.548 2.548 0 0 1-1.006 2.875c-.706.469-.306.45-7.25.431l-6.213-.019-.313-.144c-.5-.225-.781-.456-1.075-.844-.975-1.325-.519-3.125.975-3.887.119-.063.412-.144.656-.181l.431-.075.106-.313c.475-1.387 1.581-2.219 2.975-2.219.637-.006.931.075 1.569.419.287.15.525.275.537.275s.125-.206.25-.456c.413-.819 1.025-1.369 1.844-1.65.494-.162 1.244-.194 1.731-.056zM9.106 23.9l.175.15.037 4.825H2.062v-4.819l.156-.15.15-.156h6.563l.175.15zm21.832 1.381v1.531H24.75v-3.063h6.188v1.531zm0 4.125v1.531H24.75v-3.063h6.188v1.531zm-20.625.869c0 .244-.037.375-.131.5l-.125.163H5.682c-4.287 0-4.369 0-4.494-.125-.1-.1-.125-.206-.125-.5v-.375h9.25v.337z"/><path d="M3.125 10.844v.531l1.019-.012 1.013-.019v-1l-1.013-.019-1.019-.012v.531zm22.688 14.437v.531h1v-1.063h-1v.531zm2.062 0v.531h2.063v-1.063h-2.063v.531zm-2.062 4.125v.531h2.063v-1.063h-2.063v.531zm3.106-.487c-.025.019-.044.262-.044.531v.488h1.063v-1.063h-.488c-.269 0-.512.019-.531.044z"/></symbol><symbol id="customer-service" viewBox="0 0 32 32"><path d="M22.631.106c-.319.113-.681.45-.85.8-.119.238-.125.387-.125 2.719 0 2.412 0 2.475.137 2.719.075.138.225.338.344.45.356.344.613.412 1.569.444l.863.025-.031.169c-.113.544-.481 2.775-.462 2.819.012.031 1.119-.631 2.456-1.475l2.438-1.525h.731c.4 0 .875-.031 1.05-.069a1.499 1.499 0 0 0 1.012-.8l.175-.344V3.6c0-2.237-.012-2.462-.119-2.694-.144-.319-.613-.738-.931-.831C30.713.019 29.569 0 26.775.006c-3.319 0-3.906.019-4.144.1zm8.15 1.113.156.15v2.194c0 2.237-.012 2.369-.244 2.544-.069.05-.4.075-1.031.081h-.938l-1.613 1.006c-.887.556-1.625 1-1.637.988s.056-.469.15-1.013l.169-.981h-2.8l-.15-.156-.156-.15V3.619c0-2.244 0-2.269.137-2.413l.131-.144h7.675l.15.156z"/><path d="m23.7 2.575.019.519 3.081.019 3.075.013V2.063h-6.194l.019.513zm0 2.063.019.519 2.05.019 2.044.013V4.126h-4.131l.019.513zm5.175.018v.531h1V4.124h-1v.531zM14.594 1.6c-.644.069-1.85.3-2.45.469a14.388 14.388 0 0 0-6.362 3.712c-1.775 1.769-3 3.831-3.681 6.194l-.206.731-.456-.762c-.25-.419-.481-.775-.512-.794-.037-.025-.675.313-.856.45-.019.019 1.394 2.419 1.738 2.956.044.063.381-.113 1.544-.806.825-.494 1.5-.9 1.512-.906.013-.012-.438-.794-.513-.887 0-.006-.3.169-.663.387-.362.225-.675.406-.7.406-.063 0 .188-.844.481-1.6C5.039 7.1 8.439 4.094 12.664 3a13.647 13.647 0 0 1 6.606 0l.669.169.15-.475c.113-.35.131-.487.075-.519-.131-.075-1.081-.3-1.831-.431-.569-.1-1.05-.137-2.113-.15a30.76 30.76 0 0 0-1.625.006z"/><path d="M14.969 5.231c-1.281.2-2.606.844-3.575 1.731-.863.794-1.606 2.044-1.938 3.269l-.169.613-.006 2.563v2.563l.162.344c.238.506.512.788 1.006 1.025l.444.212.169.538c.1.3.3.756.45 1.019.3.538 1.088 1.381 1.563 1.675.213.131.3.231.3.325 0 .156.15.119-2.2.55-.844.15-1.694.337-1.881.406-1 .375-1.763 1.169-2.144 2.238-.094.269-.188.5-.213.525-.019.031-.45-.369-.956-.875-1.244-1.256-1.25-1.075.156-2.494l1.081-1.081-1.906-1.906-1.906-1.913-1.381 1.394C.862 19.127.612 19.408.45 19.752c-.306.637-.406 1.113-.375 1.837.031.7.163 1.15.5 1.7.131.219 1.55 1.681 4.106 4.231 3.656 3.637 3.944 3.906 4.344 4.1 1.125.531 2.494.475 3.475-.144.169-.106.956-.788 1.744-1.506l1.438-1.313-.387-.387-.381-.394h5.513c3.031 0 5.512-.019 5.512-.05 0-.163-1.275-3.825-1.444-4.15-.269-.5-.913-1.144-1.4-1.406-.519-.269-.831-.35-2.625-.675-2.075-.375-1.906-.331-1.9-.488 0-.094.144-.244.475-.481.262-.188.594-.488.75-.663l.275-.325.731-.025c.587-.019.781-.05.981-.156a1.8 1.8 0 0 0 .744-.738c.131-.25.131-.281.131-3.938 0-3.313-.012-3.738-.113-4.206-.556-2.581-2.387-4.519-4.919-5.206-.356-.1-.706-.131-1.469-.15-.55-.013-1.081-.006-1.188.013zm1.925 1.05c2.044.356 3.762 1.806 4.425 3.738.25.731.306 1.175.306 2.494v1.162l-.25-.094c-.244-.1-.25-.106-.25-.406v-.3h-.594c-1.519 0-2.95-.619-4.087-1.775l-.463-.469-.55.519c-1.238 1.181-2.506 1.725-4.025 1.725h-.594v.3c0 .3-.006.306-.256.406l-.256.1.031-1.45c.031-1.619.069-1.825.488-2.719.75-1.612 2.219-2.806 3.875-3.162.894-.188 1.425-.206 2.2-.069zm-.488 6.175c.813.669 1.988 1.2 3 1.356.275.044.538.088.581.1.056.019.075.387.075 1.6 0 1.7-.044 2.019-.337 2.688l-.163.363-1.794.012-1.8.019v1l2.688.063-.294.206a4.564 4.564 0 0 1-1.538.675c-.619.137-1.575.094-2.137-.094-1.269-.431-2.238-1.425-2.669-2.725-.156-.475-.162-.575-.194-2.119-.031-1.769-.037-1.725.338-1.725.3 0 1.325-.275 1.838-.5.481-.2 1.569-.887 1.775-1.119.069-.075.144-.131.175-.131s.231.15.456.331zm-5.593 3.056v.881l-.162-.15a1.45 1.45 0 0 1-.25-.319c-.106-.2-.113-.694-.019-.881.094-.175.313-.419.381-.419.025 0 .05.4.05.887zm10.699-.506c.219.406.125.912-.225 1.237l-.163.15v-1.781l.137.088c.075.05.188.188.25.306zm.113 2.775c0 .419-.019.494-.156.625-.119.125-.212.156-.456.156h-.306l.144-.425c.081-.231.15-.462.15-.512 0-.081.363-.269.581-.306.025 0 .044.206.044.462zM5.5 20.656l-.281.281-1.188-1.188-1.181-1.188.275-.281.281-.281 2.375 2.375-.281.281zm-1.213 1.25a1.538 1.538 0 0 0-.106 1.575c.188.363 4.169 4.3 4.475 4.431.481.2 1.225.087 1.563-.225.131-.119.131-.119 1.313 1.069l1.188 1.188-.325.306a3.68 3.68 0 0 1-.688.481c-.338.163-.419.175-1.081.175-1.175 0-.844.262-5.294-4.181-4.169-4.163-4.056-4.031-4.219-4.913-.137-.738.119-1.563.681-2.188l.288-.325 1.181 1.188 1.187 1.181-.162.238zM16 21.644c.506 0 .9-.038 1.125-.1.188-.05.35-.087.356-.081s-.331.356-.75.775l-.762.762-1.55-1.55.4.1c.262.063.662.1 1.181.094zm-1.175 1.712 1.113 1.113 2.238-2.238 1.962.356c1.581.288 2.031.387 2.337.538.425.206.813.55 1.056.938.137.212.969 2.538.969 2.7 0 .025-2.4.05-5.331.05h-5.325l-.969-.969c-.531-.531-.994-.969-1.019-.969-.031 0-.456.363-.944.8C9.5 26.963 9.449 27 9.237 27c-.162 0-.3-.106-.831-.631l-.644-.631.244-.719c.275-.819.519-1.238.894-1.55.488-.394.844-.506 2.756-.869 1-.181 1.869-.337 1.938-.344.081-.006.5.369 1.231 1.1zm-.962 5.563-.331.331-1.188-1.188-1.188-1.194.338-.313.338-.319 2.356 2.356-.325.325zM28.6 9.762c-.05.081-.456.756-.906 1.506l-.813 1.356.262.162c.144.088.325.2.4.25s.163.088.188.088c.031 0 .244-.325.481-.725.288-.475.45-.694.481-.637.025.044.119.35.206.675 1.063 3.913.3 8.119-2.056 11.406-.2.275-.369.531-.387.569-.025.063.637.65.738.65.075 0 .769-.994 1.194-1.706 1.337-2.25 2-4.694 2.006-7.356 0-1.438-.206-2.887-.581-4.119-.069-.225-.113-.412-.106-.425.019-.012.563.306 1.275.738l.2.125.262-.444c.144-.244.25-.45.238-.463a194.695 194.695 0 0 0-2.869-1.725c-.1-.05-.137-.037-.212.075z"/></symbol><symbol id="customer-support" viewBox="0 0 32 32"><path d="M2.406.119c-.1.063-.675.606-1.262 1.206C.138 2.344.063 2.431.063 2.644c0 .188.219.619 1.1 2.156.6 1.056 1.131 1.956 1.175 2 .044.05.569.206 1.163.356l1.087.275 6.819 6.819.75-.75-3.469-3.475c-1.906-1.906-3.537-3.506-3.625-3.55s-.575-.188-1.094-.313l-.938-.231-.875-1.544a64.128 64.128 0 0 1-.894-1.6c-.006-.038.331-.413.75-.831l.769-.762 1.6.913 1.6.919.237 1 .244 1.006 3.531 3.55 3.537 3.544.75-.75-6.838-6.844-.256-1.025c-.144-.563-.281-1.075-.313-1.131C6.804 2.245 2.879.001 2.717.001c-.069 0-.206.056-.313.119z"/><path d="M24.5.1c-2.706.506-4.75 2.606-5.188 5.356-.075.463-.056 1.788.031 2.075.031.1-1.038 1.194-5.8 5.956l-5.838 5.838-.631-.075c-2.6-.306-5.181 1.125-6.356 3.531-.563 1.144-.744 2.094-.644 3.406.175 2.35 1.762 4.475 4.006 5.369.819.325 1.631.462 2.575.425.987-.038 1.65-.194 2.444-.569 1.906-.9 3.181-2.506 3.594-4.506.125-.587.156-1.775.063-2.25l-.05-.25 1.412-1.419 1.406-1.425.7.688c.831.825.906.844 1.4.406.262-.231.356-.281.569-.281.331 0 .556.231.556.569 0 .194-.05.3-.281.556-.506.575-.769.238 3.269 4.256 3.238 3.231 3.581 3.556 3.994 3.769 1.625.831 3.587.581 4.9-.637.975-.906 1.369-1.813 1.369-3.169 0-1.038-.2-1.712-.744-2.481-.1-.15-1.731-1.813-3.619-3.7-3.375-3.363-3.444-3.431-3.644-3.387-.106.019-.319.15-.469.288-.144.131-.337.262-.431.288-.344.087-.719-.238-.719-.625 0-.1.106-.275.281-.475.456-.512.425-.625-.394-1.456l-.669-.669 2.813-2.813.5.069c.569.081 1.425.044 2.063-.094 2.325-.494 4.169-2.225 4.844-4.537.287-.963.219-3.15-.1-3.506-.137-.15-.425-.206-.6-.119-.081.044-.9.831-1.831 1.75l-1.688 1.675-1.306-.45-1.313-.444-.431-1.306-.431-1.3 1.725-1.731C27.456 1.071 27.562.952 27.562.74c0-.325-.163-.481-.594-.588-.569-.144-1.831-.169-2.469-.05zm-.019 2.45C23.112 3.925 23 4.05 23 4.25c0 .237 1 3.3 1.15 3.531.075.112.462.269 1.8.713.938.313 1.788.569 1.887.569.156 0 .406-.225 1.631-1.444.837-.831 1.475-1.412 1.494-1.375.025.037.012.356-.025.706-.25 2.269-1.769 4.031-3.969 4.619-.606.162-1.65.188-2.35.063-.419-.075-.494-.069-.656.012-.256.137-12.256 12.162-12.325 12.356-.044.106-.031.306.025.594.188.981.075 2.181-.3 3.075-.625 1.506-1.813 2.594-3.425 3.119-.487.163-.612.175-1.5.175-1.144.006-1.462-.063-2.406-.525-1.306-.631-2.225-1.669-2.694-3.05a5.337 5.337 0 0 1 3.831-6.956 6.025 6.025 0 0 1 2.244-.056c.25.044.513.063.594.044.088-.025 2.825-2.719 6.3-6.194 5.688-5.688 6.15-6.169 6.156-6.362 0-.112-.038-.419-.081-.675-.1-.563-.056-1.606.087-2.156.163-.6.606-1.462 1.012-1.969a5.324 5.324 0 0 1 4.05-1.994l.438-.006-1.488 1.487zm-3 14.875c-.163.319-.175.406-.15.8.019.337.063.519.188.731a1.665 1.665 0 0 0 2.219.656l.306-.163 6.175 6.175-4.563 4.563-6.175-6.175.169-.331c.3-.606.188-1.413-.262-1.887a1.693 1.693 0 0 0-1.956-.337l-.331.175-.863-.863 4.606-4.519.819.819-.181.356zm9.4 9.525c.044.181.081.556.075.837-.025 1.825-1.581 3.25-3.425 3.131-.275-.019-.594-.069-.712-.113l-.206-.075 2.05-2.05c1.131-1.131 2.075-2.056 2.094-2.056.025 0 .081.15.125.325z"/><path d="M15.656 15.625 9.781 21.5l.75.75 11.75-11.75-.75-.75-5.875 5.875zM4.419 22.637c-.319.438-1.731 2.856-1.731 2.975 0 .206 1.737 3.05 1.912 3.131.106.044.737.069 1.869.069h1.719l.181-.175c.294-.275 1.781-2.819 1.781-3.044-.006-.206-1.55-2.85-1.787-3.05-.113-.094-.306-.106-1.963-.106H4.569l-.15.2zm3.956 1.919.637 1.063-.637 1.063-.644 1.069H5.144l-.638-1.056c-.344-.581-.631-1.075-.631-1.094 0-.025.925-1.587 1.163-1.962.088-.137.112-.137 1.4-.137h1.306l.631 1.056zm13.531-2.681-.375.375 5.344 5.344.75-.75-5.344-5.344-.375.375z"/></symbol><symbol id="trophy" viewBox="0 0 32 32"><path d="M8 .056C7.544.2 7.15.55 6.969.981c-.056.138-.094.419-.094.744v.525H5.687c-.65 0-1.331.031-1.513.069-1.031.219-1.775 1.044-1.85 2.044-.081 1.194.781 3.637 1.85 5.231.987 1.475 2.413 2.838 3.794 3.637.412.238.419.238.75.938 1.031 2.175 2.331 3.775 3.875 4.781.306.2.681.406.825.462.287.113.3.137.275.712a3.225 3.225 0 0 1-.887 2.031c-.425.45-.863.725-1.525.956-.781.269-.744.169-.769 2.363l-.019 1.837h-.9c-.756 0-.956.019-1.25.131-.456.169-.975.65-1.2 1.106-.169.35-.175.381-.194 1.619-.019 1.056-.006 1.288.075 1.45.213.406-.394.381 9.006.381 7.45 0 8.563-.012 8.719-.094.356-.188.375-.256.375-1.606 0-1.525-.063-1.738-.65-2.337-.55-.556-.837-.65-2.006-.65h-.906v-1.806c0-2.194.031-2.113-.825-2.419-.675-.238-1.081-.5-1.488-.944-.556-.606-.875-1.4-.875-2.175v-.444l.3-.144c1.781-.863 3.425-2.725 4.606-5.213.3-.631.363-.713.606-.85 1.331-.738 2.719-2.012 3.781-3.494 1.119-1.556 2.094-4.213 2.006-5.463-.075-1-.819-1.825-1.85-2.044-.181-.038-.863-.069-1.512-.069h-1.188v-.475c0-.262-.031-.587-.075-.719-.094-.319-.431-.713-.762-.887L24.03.027 16.092.014C11.729.008 8.086.027 7.998.051zm15.688 3.431c0 2.225-.069 3.569-.256 4.856-.506 3.537-1.813 6.544-3.65 8.375-.9.9-1.725 1.413-2.7 1.656-.581.15-1.5.163-2.069.031-2.912-.688-5.469-4.438-6.325-9.281-.269-1.556-.319-2.213-.356-4.956l-.037-2.669h15.394v1.987zM6.894 5.575c.025 1.325.069 2.075.162 2.706.119.844.381 2.213.506 2.65.031.119.05.231.031.244-.063.063-1.656-1.619-2.013-2.131C4.855 8.019 4.218 6.6 3.924 5.382c-.212-.912-.15-1.244.281-1.506.181-.112.319-.125 1.425-.125h1.225l.037 1.825zM27.75 3.844c.456.237.538.638.319 1.563a10.898 10.898 0 0 1-2.119 4.238c-.337.412-1.506 1.569-1.55 1.525-.012-.012.006-.119.038-.238.125-.438.387-1.806.506-2.65.094-.631.137-1.381.163-2.706l.038-1.825h1.212c.95 0 1.25.019 1.394.094zM16.9 20.381c.069.775.462 1.762.944 2.394.125.163.212.313.2.325s-.931.019-2.038.012l-2.019-.019.219-.281c.525-.688.894-1.606.956-2.387l.044-.456h1.656l.038.413zm3.163 5.588v1.344H12v-2.688h8.063v1.344zm3.187 2.894c.325.163.438.438.438 1.087v.55H8.363l.025-.613c.025-.694.113-.9.444-1.044.169-.075 1.387-.087 7.2-.094 6.544 0 7.012.006 7.219.113z"/><path d="M15.688 4.419c-.188.1-.294.256-.787 1.237l-.575 1.125-1.144.162c-.631.094-1.231.206-1.325.25-.225.106-.356.356-.356.688 0 .256.025.294.9 1.175l.906.912-.188 1.063c-.238 1.394-.238 1.488.031 1.756.35.35.55.313 1.8-.338l1.05-.544 1.056.544c1.25.65 1.444.688 1.794.338.269-.269.269-.363.031-1.756l-.188-1.063.906-.912c.875-.881.9-.919.9-1.175 0-.369-.137-.6-.419-.706-.131-.05-.725-.162-1.325-.244l-1.081-.144-.556-1.112c-.331-.662-.613-1.15-.7-1.206a.704.704 0 0 0-.731-.05zm.637 2.987c.35.694.406.738 1.225.844.313.044.575.094.575.113s-.212.25-.469.519c-.469.475-.469.481-.462.813 0 .188.038.537.081.787l.081.45-.6-.306c-.325-.175-.663-.313-.75-.313-.081 0-.431.144-.769.319-.494.25-.619.294-.588.2.075-.269.162-.875.162-1.162 0-.3-.012-.325-.469-.787-.256-.269-.469-.5-.469-.519s.262-.069.581-.113c.813-.106.869-.15 1.219-.844.156-.325.306-.594.325-.594s.169.269.325.594z"/></symbol><symbol id="ui" viewBox="0 0 32 32"><path d="M9.5.1c-.744.2-1.356.725-1.713 1.462l-.194.406-.037 5.463-.513.269a7.014 7.014 0 0 0-3.681 5.106l-.075.506h-1.6v1.056l1.587.037.081.506c.15.988.575 2.056 1.15 2.919.375.55 1.25 1.413 1.831 1.788.906.587 1.669.894 2.694 1.069l.625.106.019.788.019.794h1.056V20.75h.206c.325-.006 1.231-.225 1.769-.431 1.175-.456 2.431-1.444 3.15-2.475.581-.844 1.05-2.006 1.156-2.875.081-.656-.012-.594.913-.594h.813l-.019-.519-.019-.512-.794-.019c-.906-.019-.8.069-.925-.713-.319-2.013-1.781-3.963-3.688-4.919a7.174 7.174 0 0 0-2.375-.706c-.156-.019-.156-.019-.188-.831l-.031-.813-1.031-.037v.813c0 .925.063.831-.588.912a2.707 2.707 0 0 0-.387.075c-.075.025-.088-.213-.088-1.412V4.25h8.5V3.187h-8.5v-.456c0-.55.194-1 .55-1.294.469-.387.256-.381 7.019-.363l6.156.019.331.175.331.169.288-.319c.163-.181.313-.356.337-.4.063-.1-.313-.362-.769-.55L22.529.03 16.185.017c-5.438-.013-6.394 0-6.688.081zm.188 8.463v.5h1.063v-1h.194c.6 0 1.931.512 2.638 1.025.45.319 1.181 1.063 1.475 1.494.438.644.813 1.606.931 2.369l.056.363h-1.044v1.063h1v.225c0 .381-.244 1.219-.531 1.806a6.17 6.17 0 0 1-1.2 1.675l-.313.3-.037-.506c-.1-1.288-.781-2.344-1.969-3.037-.012-.006.081-.119.206-.25.306-.331.588-.925.675-1.419.131-.769-.137-1.588-.713-2.2-.387-.412-.731-.625-1.219-.75-1.281-.331-2.544.262-3.106 1.456-.162.35-.2.512-.219.981-.037.813.169 1.387.7 1.956.162.169.175.213.1.262-.419.256-.862.644-1.106.963-.487.644-.688 1.187-.806 2.175-.019.169-.056.3-.088.3-.081 0-.731-.725-.994-1.113-.494-.738-.881-1.706-.975-2.469l-.044-.356h1.013v-1.063H4.362l.044-.3c.075-.563.231-1.044.506-1.631.756-1.613 2.119-2.737 3.856-3.194.25-.063.556-.119.688-.119l.231-.006v.5zm.993 2.724c.706.206 1.2.981 1.1 1.713-.063.438-.375.925-.738 1.15s-.887.281-1.344.156c-.381-.106-.887-.6-1-.969-.213-.725.019-1.444.575-1.825.5-.331.856-.394 1.406-.225zm.188 4.282c.938.213 1.725 1.044 1.938 2.044.037.181.069.594.069.919v.587l-.512.194c-.506.2-1.2.369-1.469.375-.137 0-.144-.025-.144-.5v-.5H9.688v1h-.175c-.262 0-1.113-.225-1.563-.413l-.4-.169.025-.85c.019-.806.031-.869.219-1.262.244-.5.806-1.056 1.294-1.281.544-.25 1.113-.294 1.781-.144z"/><path d="m.244 2.306-.188.188.019 2.35L.094 7.2l.15.119c.137.112.281.119 3.031.119h2.894l.131-.144c.138-.144.138-.169.138-2.494 0-2.219-.006-2.356-.119-2.494l-.119-.15-5.769-.038-.188.188zm5.131 2.475v1.594h-4.25V3.187h4.25v1.594z"/><path d="M2.188 4.781v.531h2.125V4.249H2.188v.531zm16.206-2.506-.175.15-.019 3.344c-.012 2.156.006 3.4.05 3.506.137.363-.056.356 6.475.338l5.975-.019.3-.35V2.488l-.363-.362H18.568l-.175.15zm11.531 3.581-.019 2.675H19.281l-.019-2.675-.012-2.669h10.688l-.012 2.669z"/><path d="M20.356 4.294c-.025.019-.044.263-.044.531v.487h2.125V4.249h-1.019c-.563 0-1.044.019-1.063.044zm3.207.487v.531h5.313V4.249h-5.313v.531zm-3.207 1.638c-.025.019-.044.263-.044.531v.487h8.563V6.374h-4.238c-2.331 0-4.262.019-4.281.044zm3.213 6.968.006 2.706-1.456 1.288c-1.431 1.269-1.462 1.294-1.788 1.331-1.113.131-2.256.962-2.775 2.006-.319.65-.431 1.194-.431 2.156-.006.919-.087 1.175-.5 1.506-.488.387-.563.481-.563.675 0 .106.063.262.15.363l.15.175h2.306l2.3-.006.488-.169c1.344-.469 2.238-1.481 2.531-2.869l.113-.519 3.831-4.344c2.106-2.387 3.881-4.444 3.95-4.575.144-.281.163-1.131.038-1.444-.125-.294-.394-.588-.712-.775-.225-.131-.394-.169-.762-.194-.431-.025-.506-.006-.806.156-.181.094-1.363 1.094-2.656 2.231l-2.325 2.063-.019-2.231-.012-2.231h-1.063l.006 2.7zm7.212-1.487c.175.175.25.412.194.619-.031.131-7.344 8.488-7.462 8.531-.081.025-1.844-1.781-1.8-1.85.038-.063 7.588-6.744 8.181-7.25.313-.256.663-.275.887-.05zm-8.944 9.031 1.175 1.175-.1.4c-.275 1.075-1.137 1.837-2.256 1.994-.512.069-2.719.081-2.719.012.006-.025.056-.2.125-.387.094-.262.119-.519.125-1.1 0-.875.069-1.294.275-1.75.169-.375.637-.906.988-1.125.25-.163.887-.394 1.081-.4.081 0 .544.419 1.306 1.181zM7.563 22.656V24H.425l-.362.363v2.262c0 2.369.019 2.55.281 2.65.138.05 12.113.05 12.25 0 .262-.1.281-.281.281-2.65v-2.262L12.512 24H8.625l-.012-1.331-.019-1.325-1.031-.038v1.35zm4.25 4v1.594H1.125v-3.188h10.688v1.594z"/><path d="M2.188 26.656v.531h2.688v-1.063H2.188v.531zm3.75 0v.531h4.813v-1.063H5.938v.531zm17.612-1.05-.019 1.05-9.594.031v1.063h9.637l-.025.95c-.031 1.119-.144 1.469-.569 1.837-.488.413-.238.4-6.919.4-6.875 0-6.488.025-6.994-.494l-.287-.294-.419.244c-.238.131-.425.275-.425.319 0 .137.55.694.881.894.688.412.438.4 7.406.381l6.306-.019.363-.15c.7-.281 1.25-.85 1.55-1.619.144-.35.144-.419.169-3l.025-2.637h-1.075l-.012 1.044z"/><path d="M15.563 29.344v.531h1.063v-1.063h-1.063v.531z"/></symbol><symbol id="web-design" viewBox="0 0 32 32"><path d="M2 .087A2.777 2.777 0 0 0 .087 2.025c-.125.475-.125 27.475 0 27.95.263.988 1.094 1.775 2.069 1.962.275.05 4.15.063 14.531.05l14.156-.019.25-.137c.294-.156.594-.462.756-.769.113-.212.119-.613.137-10.688.012-11.525.037-10.775-.369-11.269a1.83 1.83 0 0 0-.45-.375l-.262-.137-11.688-.063-.031-3.25c-.031-3.156-.038-3.256-.169-3.581-.275-.681-.844-1.238-1.581-1.55-.269-.113-.544-.119-7.719-.131-5.825-.006-7.5.006-7.719.069zm15.225 1.144c.313.169.606.469.756.762.094.181.119.419.131 1.238l.019 1.019H1.05l.025-1.019c.019-.837.038-1.05.137-1.231.219-.419.606-.75 1.038-.881.087-.025 3.431-.044 7.437-.038l7.281.012.256.137zm.9 5.707v1.625h-1.544l-.038-.431c-.044-.519-.15-.75-.462-.987l-.225-.175-6.181-.019c-6.063-.013-6.181-.013-6.419.112a1.264 1.264 0 0 0-.394.325l-.144.206-.019 3.037-.019 3.031.144.213c.081.113.225.269.319.338.175.131.237.131 4.375.162l4.2.031v2.125l-.731.031c-.806.038-.944.094-1.225.5l-.144.212.019 3.031.019 3.038.15.212c.238.331.556.444 1.306.444h.637l-.012 1.325-.019 1.331-10.656.031V5.311h17.063v1.625zm-2.687 1.343v.281h-1.25c-1.125 0-1.275.012-1.519.125-.369.175-.65.475-.813.881-.106.262-.262.456-.7.869-.313.287-.713.669-.887.838l-.331.313-.988-.981c-.938-.931-1-.981-1.231-.981-.237 0-.306.063-2.106 1.856l-1.862 1.863V8.001h11.688v.281zm15.318 1.463.15.119.019 10.356.012 10.35-.181.188-.181.181h-8.669c-8.95 0-8.825.006-9.012-.244-.063-.075-.075-2.406-.081-10.431V9.932l.156-.15.15-.156h8.744c8.519 0 8.75 0 8.894.119zM8.969 12.125l1.188 1.188H5.282l1.188-1.188c.65-.656 1.213-1.188 1.25-1.188s.6.531 1.25 1.188zm2.75 1.175c-.019.019-.262-.188-.537-.463l-.5-.494 1.037-.963.019.944c.006.519 0 .956-.019.975zm.031 6.981v2.656h-1.063v-5.313h1.063v2.656zm0 8v.531H9.262c-2.7 0-2.694 0-2.831.35-.081.219.075.569.287.65.1.038 1.138.063 2.6.063h2.431v.387c0 .219.019.456.037.538l.037.137-4.8-.012c-4.794-.019-4.806-.019-5.056-.156A1.976 1.976 0 0 1 1.211 30c-.1-.181-.119-.394-.137-1.238l-.025-1.012h10.7v.531z"/><path d="M7.119 2.306c-.231.237-.244.512-.025.725.131.138.206.156.612.156.369 0 .5-.025.619-.125.2-.15.244-.369.137-.619-.1-.237-.294-.319-.781-.319-.338 0-.4.019-.563.181zM9.906 2.2c-.325.175-.387.575-.125.831.15.15.169.156 1.156.156s1.006-.006 1.156-.156c.262-.256.194-.656-.137-.831-.175-.1-1.875-.1-2.05 0zM2.825 16.706c-.269.281-.131.738.256.875.188.069.512-.106.6-.325.1-.225.006-.531-.188-.631-.206-.113-.525-.075-.669.081zm2.119.019c-.175.219-.162.481.019.694l.15.175 1.369.019c1.5.025 1.719 0 1.9-.181.175-.175.162-.556-.025-.731-.144-.131-.188-.137-1.713-.137H5.069l-.125.163zm-2.1 2.119c-.281.275-.156.756.219.875.325.1.744-.3.663-.631a.527.527 0 0 0-.881-.244zm2.125 0c-.231.225-.213.538.037.744l.194.163h1.431c1.756 0 1.869-.038 1.869-.587 0-.131-.05-.25-.144-.337-.144-.131-.188-.137-1.694-.137H5.118l-.15.156zm-2.125 2.125c-.256.25-.206.656.106.819.369.188.763-.044.763-.456 0-.45-.556-.681-.869-.363zm2.125 0c-.263.256-.194.656.138.831.169.094 2.875.106 3.112.012.188-.069.338-.375.294-.6-.012-.081-.1-.206-.188-.275-.144-.119-.256-.125-1.681-.125H5.119l-.15.156zm-2.125 2.125a.511.511 0 0 0 .288.881c.506.081.8-.556.406-.887-.225-.194-.5-.194-.694.006zm2.125 0a.511.511 0 0 0-.156.337c0 .531.119.569 1.906.569h1.475l.15-.156c.238-.231.231-.55-.006-.769-.156-.137-.188-.137-1.688-.137H5.119l-.15.156zm10.137-10.756c-.294.106-.381.181-.556.469-.137.213-.144.3-.162 1.625-.025 1.531-.006 1.763.181 1.95.175.175.556.163.731-.025.131-.137.137-.206.15-1.575l.019-1.438 1.431-.019c1.256-.012 1.45-.031 1.556-.125.294-.262.25-.681-.087-.856-.244-.131-2.906-.131-3.262-.006z"/><path d="M20.063 12.325c-.119.063-1.575 2.119-1.938 2.738-.044.075-.131.019-.425-.269-.331-.306-.413-.356-.625-.356-.306 0-.512.2-.512.506 0 .188.075.287.675.881 1.038 1.031.931 1.081 2.413-1.15 1.05-1.569 1.169-1.781 1.137-1.95-.075-.356-.425-.55-.725-.4zm2.574.587a.71.71 0 0 0-.206.25c-.081.219.075.569.288.65.244.094 4 .081 4.175-.012.331-.175.4-.575.137-.831l-.15-.156h-2.05c-1.781 0-2.075.012-2.194.1zm5.769.1c-.2.238-.181.506.069.719.131.119.231.144.594.144.406 0 .456-.012.625-.181.194-.194.225-.369.106-.588-.125-.244-.25-.287-.75-.294-.462 0-.481.006-.644.2zm-5.819 2.076a.5.5 0 0 0 .006.769c.137.119.238.144.6.144.406 0 .456-.012.625-.181.194-.194.225-.344.113-.588-.1-.213-.306-.294-.775-.294-.331 0-.431.025-.569.15zm2.657.031c-.238.238-.238.463.006.7l.188.188 1.288-.019c1.269-.019 1.288-.019 1.406-.169a.552.552 0 0 0-.038-.725c-.15-.156-.156-.156-1.406-.156h-1.262l-.181.181zm-10.219 3.125a1.02 1.02 0 0 0-.588.706c-.044.15-.063.806-.05 1.675.019 1.413.019 1.431.169 1.587.2.212.55.225.744.019.131-.137.137-.206.15-1.575l.019-1.438 1.45-.031c1.4-.031 1.456-.038 1.594-.169a.536.536 0 0 0 0-.725c-.137-.131-.181-.137-1.688-.156-1.4-.012-1.569 0-1.8.106z"/><path d="M20.012 18.206c-.075.044-.55.694-1.05 1.444l-.913 1.369-.319-.319c-.181-.169-.387-.344-.469-.381-.3-.156-.7.125-.7.488 0 .206.069.294.675.9.6.6.694.669.894.669.163 0 .262-.05.381-.175.087-.094.644-.9 1.238-1.788.95-1.438 1.069-1.644 1.038-1.813-.044-.231-.3-.475-.494-.475a.846.846 0 0 0-.281.081zm2.569.619c-.181.2-.212.331-.131.55.125.363.219.375 2.387.375h1.962l.194-.163c.25-.206.269-.519.038-.744l-.15-.156h-2.087c-2.081 0-2.087 0-2.212.137zm5.869-.012a.52.52 0 0 0 .113.856c.2.1.8.1 1 0 .337-.169.394-.587.125-.856-.181-.181-1.038-.181-1.238 0zm-5.813 2.1c-.219.15-.275.369-.169.625.106.262.288.337.788.337.337 0 .4-.019.563-.181.1-.1.181-.244.181-.319 0-.181-.163-.475-.281-.525-.212-.081-.938-.038-1.081.063zm2.669-.019c-.288.219-.313.55-.063.8l.181.181h1.2c1.206 0 1.375-.025 1.544-.244.131-.169.094-.494-.075-.663-.15-.156-.156-.156-1.419-.156-.9.006-1.3.025-1.369.081zm-10.294 3.212a1.119 1.119 0 0 0-.575.712c-.044.156-.063.794-.05 1.681.019 1.413.019 1.431.169 1.587.188.2.488.212.713.031l.169-.125.012-1.45.019-1.45 1.45-.031c1.4-.031 1.456-.038 1.594-.169a.509.509 0 0 0-.038-.744c-.169-.15-.181-.15-1.712-.15-1.294 0-1.575.019-1.75.106z"/><path d="M20.012 24.081c-.075.044-.55.694-1.05 1.444l-.913 1.369-.35-.35c-.387-.381-.606-.475-.837-.35-.212.113-.294.25-.3.488 0 .194.075.294.675.894s.7.675.894.675c.163 0 .262-.05.381-.175.331-.35 2.3-3.394 2.3-3.55 0-.2-.319-.525-.512-.525a.85.85 0 0 0-.288.081zm2.569.619c-.188.212-.212.344-.119.581.144.331.306.356 2.494.331l1.931-.019.15-.175c.181-.212.194-.475.019-.694l-.125-.163h-2.113c-2.106 0-2.113 0-2.238.137zm5.857-.012c-.413.413-.063.938.637.938.538 0 .856-.294.769-.7-.063-.281-.244-.363-.794-.363-.4 0-.506.019-.613.125zm-5.857 2.137c-.188.212-.212.344-.119.575.113.269.369.375.856.337.325-.025.413-.056.538-.2.188-.225.188-.5-.012-.694-.131-.137-.206-.156-.644-.156-.431 0-.506.019-.619.137zm2.669-.012c-.175.175-.225.431-.119.619.163.288.313.319 1.569.319 1.163 0 1.169 0 1.356-.163.25-.206.269-.519.038-.744-.15-.156-.156-.156-1.438-.156-1.194 0-1.288.006-1.406.125z"/></symbol><symbol id="badge" viewBox="0 0 32 32"><path d="M12.65.069c-.069.038-.525.738-1.019 1.556-.85 1.419-.9 1.494-1.063 1.462-.938-.169-3.344-.45-3.431-.406-.306.163-.325.225-.475 2-.081.938-.162 1.713-.175 1.731-.019.013-.763.256-1.65.531-1.7.525-1.9.625-1.9.963 0 .075.269.831.594 1.669.325.831.594 1.55.594 1.594 0 .037-.563.6-1.25 1.244-.712.662-1.269 1.231-1.288 1.313s-.025.213 0 .294c.019.075.587.662 1.269 1.294s1.244 1.181 1.256 1.219c.013.044-.25.769-.581 1.613-.325.844-.594 1.6-.594 1.681 0 .262.169.413.625.563.244.075.431.156.425.175-.013.025-.913 1.494-2 3.262-1.212 1.962-1.988 3.281-1.988 3.375 0 .2.206.462.394.506.075.025 1.363-.181 2.856-.456s2.719-.488 2.725-.481c.006.006.231 1.094.494 2.413s.506 2.462.544 2.538c.119.262.481.356.725.181.081-.056.987-1.363 2.019-2.906 1.025-1.544 1.881-2.806 1.894-2.806s.194.294.406.65c.213.356.444.7.512.762.269.244.444.169 1.981-.844l1.45-.956 1.45.956c1.5.988 1.706 1.075 1.95.875.056-.05.288-.394.512-.762.225-.375.419-.681.438-.681.012 0 .869 1.262 1.894 2.806 1.031 1.544 1.938 2.85 2.019 2.906.075.056.188.1.25.1.163 0 .413-.131.462-.244.025-.056.275-1.212.55-2.569l.506-2.469.156.012c.087.006 1.313.119 2.725.244s2.644.212 2.731.188c.175-.044.356-.319.356-.531 0-.069-.875-1.438-1.944-3.044s-1.956-2.956-1.975-3c-.019-.056.087-.113.331-.188.413-.119.65-.325.65-.556 0-.087-.269-.856-.594-1.7-.331-.844-.594-1.569-.581-1.606.012-.044.575-.594 1.256-1.225.694-.644 1.25-1.206 1.269-1.294a.663.663 0 0 0 0-.294c-.019-.088-.563-.644-1.288-1.319-.688-.644-1.25-1.2-1.25-1.238s.269-.75.594-1.588c.325-.838.594-1.594.594-1.675 0-.331-.194-.431-1.9-.969-.894-.275-1.637-.513-1.65-.531-.012-.013-.094-.781-.169-1.712-.087-.987-.181-1.737-.225-1.806-.169-.269-.281-.275-1.981-.044-.881.125-1.669.231-1.738.25-.119.025-.25-.163-1.031-1.462C19.491.164 19.36.002 19.066.002c-.069 0-.781.438-1.6.969l-1.475.969-.762-.512C13.791.459 13.041.003 12.91.009a.778.778 0 0 0-.262.063zm1.85 2.15c.762.5 1.438.906 1.494.906.112 0 .956-.519 2.219-1.369.556-.375.688-.444.756-.369.044.044.431.675.869 1.406.625 1.05.825 1.331.956 1.375.125.044.625 0 1.756-.156.869-.119 1.594-.2 1.613-.181.019.013.087.675.156 1.456.144 1.725.156 1.794.294 1.919.056.05.794.306 1.637.569.837.262 1.538.494 1.55.506s-.231.681-.544 1.481c-.313.8-.569 1.537-.569 1.644 0 .194-.025.169 1.637 1.706l.794.731-.45.438c-.25.238-.794.762-1.219 1.156-.637.6-.762.75-.762.9 0 .1.256.844.569 1.644.313.806.563 1.475.55 1.481-.012.012-.712.231-1.544.494-.837.262-1.575.519-1.644.581-.15.131-.156.194-.306 1.925-.069.788-.131 1.444-.15 1.456-.012.012-.744-.075-1.631-.2-1.35-.181-1.631-.206-1.769-.144-.113.056-.419.512-.988 1.456-.456.756-.856 1.369-.887 1.363s-.663-.406-1.394-.887c-.788-.519-1.4-.881-1.488-.881-.094 0-.694.356-1.494.875-.731.481-1.363.887-1.394.894-.037.006-.438-.606-.894-1.363-.581-.969-.875-1.4-.994-1.456-.137-.069-.4-.044-1.762.15-.881.119-1.619.212-1.631.194-.019-.012-.088-.669-.15-1.456-.15-1.738-.162-1.794-.306-1.925-.069-.063-.806-.319-1.644-.581-.831-.262-1.531-.481-1.544-.494-.006-.006.237-.681.55-1.488s.569-1.55.569-1.644c0-.144-.144-.313-.794-.925-.438-.412-.987-.931-1.219-1.156l-.419-.406.731-.669c1.625-1.494 1.7-1.569 1.7-1.775 0-.1-.256-.844-.569-1.644-.306-.8-.556-1.463-.544-1.475s.706-.238 1.55-.5c.844-.269 1.587-.531 1.65-.594.106-.1.138-.313.237-1.419.181-2.094.156-1.956.35-1.95.094 0 .819.094 1.606.206 1.181.169 1.469.194 1.625.131.15-.056.344-.331 1.019-1.456.456-.762.844-1.387.856-1.387s.644.406 1.406.906zM5.844 21.1c.313.094.588.188.619.212.025.031.119.819.2 1.756.138 1.55.162 1.719.287 1.85.181.194.325.188 2.206-.075.856-.119 1.575-.2 1.594-.169.025.025.1.144.169.262l.131.219-1.65 2.462c-.944 1.419-1.656 2.431-1.675 2.375-.019-.05-.213-1-.438-2.119-.444-2.231-.45-2.25-.894-2.25-.119 0-1.219.181-2.438.406s-2.237.406-2.263.394c-.038-.012 1.431-2.438 3.169-5.231.144-.238.231-.319.313-.294.056.012.362.106.669.2zm22.831 2.338c1.606 2.425 1.694 2.563 1.531 2.563-.1 0-1.1-.087-2.231-.188-1.131-.106-2.175-.188-2.325-.188-.494 0-.488-.019-.95 2.3-.231 1.137-.438 2.075-.456 2.075-.05 0-3.244-4.794-3.244-4.869 0-.056.244-.506.275-.506l1.569.219c1.887.262 2.025.269 2.212.069.125-.131.15-.275.256-1.606.069-.806.137-1.581.156-1.725l.038-.269.669-.212c.369-.119.7-.219.731-.219.038 0 .831 1.15 1.769 2.556z"/><path d="m15.65 4.956-.181.156-.031 1.462-.031 1.456-.9 1.762-.831.669c-.456.363-.85.662-.875.662-.031 0-.05-.037-.05-.081 0-.05-.063-.144-.144-.219-.144-.137-.175-.137-2.225-.137H8.307l-.15.156-.156.15v8.375l.3.35 2.025.019c2.219.012 2.262.006 2.419-.35l.094-.2h4.156c4.606 0 4.369.019 4.875-.413.438-.369.644-1.206.419-1.738-.087-.206-.081-.219.131-.419.456-.438.619-1.05.431-1.619l-.106-.319.188-.156c.294-.244.506-.738.506-1.162 0-.2-.038-.463-.087-.575-.087-.206-.081-.219.131-.419.813-.781.625-2.088-.369-2.581l-.325-.162h-4.1V8.479c0-1.275-.081-1.8-.35-2.294-.394-.719-1.288-1.3-2.081-1.362-.381-.025-.438-.013-.606.131zm1.231 1.188c.313.213.6.625.675.981.038.181.069.956.069 1.775v1.456l.325.3 2.375.031c2.281.031 2.375.037 2.462.156.15.2.175.419.081.588-.163.281-.319.319-1.506.319h-1.113v1.063h.906c.887 0 .919.006 1.063.156a.512.512 0 0 1 .156.338c0 .512-.156.569-1.531.569h-1.094v1.063h1.762l.181.181c.106.113.181.25.181.35s-.075.238-.181.35l-.181.181h-2.325v1.063h.844c1.1 0 1.281.081 1.281.569a.512.512 0 0 1-.156.337l-.15.156h-8.194v-5.613l1.269-1.012 1.262-1.012.594-1.162.594-1.169.019-1.081c.012-.588.044-1.075.069-1.075.031 0 .144.063.262.144zM11.738 15.2l-.019 3.456-1.325.019-1.331.012v-6.938h2.688l-.012 3.45z"/></symbol><symbol id="bill" viewBox="0 0 32 32"><path d="M1.975.069C1.269.238.575.825.231 1.55l-.2.419-.019 2.638-.019 2.644h4.131v3.825l-1.075 1.375c-1.25 1.588-1.406 1.813-1.488 2.113-.031.119-.156 1.012-.281 1.975l-.219 1.762v2.644c.006 2.619.006 2.669.212 4.256l.2 1.613H-.002v5.187h7.25v-2.563h9.587c6.156 0 9.706-.025 9.919-.063.8-.15 1.575-.744 1.919-1.481.169-.363.169-.369.188-2.006l.019-1.637h-4.131v-2.694c0-2.531.006-2.688.113-2.656.6.188 1.906.225 2.625.075.913-.2 1.894-.681 2.575-1.281l.281-.25-.344-.344c-.188-.194-.369-.35-.406-.35-.044 0-.137.069-.219.156-.212.231-.863.631-1.288.806-1.944.794-4.256.15-5.494-1.525a4.71 4.71 0 0 1-.369-4.938c1.119-2.15 3.788-3.056 6.012-2.056 1.163.519 2.063 1.531 2.488 2.775.137.412.175.644.2 1.281.031.931-.056 1.394-.425 2.175-.137.287-.238.544-.219.569.012.025.2.156.413.287.444.269.387.306.75-.45a5.47 5.47 0 0 0 .538-2.113 5.746 5.746 0 0 0-.781-3.188c-.344-.581-1.231-1.512-1.794-1.875-1.169-.763-2.719-1.069-4.075-.813-.269.05-.506.094-.531.094s-.056-1.356-.063-3.019l-.019-3.013-.206-.419c-.356-.719-.925-1.2-1.669-1.387-.325-.087-1.531-.1-10.5-.094C6.492.01 2.117.035 1.973.067zm1.244 1.112c.319.144.737.613.831.931.05.163.075.875.075 2.163v1.912H1.062v-2c0-1.994 0-2.006.15-2.3.175-.337.344-.506.694-.688.331-.175.962-.181 1.313-.019zM22.8 1.163c.294.119.606.419.781.744.137.244.137.306.156 3.35l.019 3.106-.3.169c-1.306.756-2.238 2.012-2.65 3.581-.2.731-.188 1.906.025 2.706.175.669.488 1.337.887 1.906.363.5 1.169 1.256 1.644 1.525l.381.219.006 2.887v2.894h-15.5v1.45c0 1.331-.012 1.481-.131 1.738-.144.319-.381.594-.631.725-.094.05-.181.087-.2.087s-.044-.319-.05-.706l-.019-.7-1.031-.038v-2.337L8.1 22.563c2.069-2.063 2.213-2.244 2.213-2.837 0-.444-.113-.756-.394-1.075-.363-.413-.669-.55-1.2-.55-.306-.006-.512.031-.688.119-.138.063-.688.55-1.231 1.081l-.981.969-.319-.644-.313-.644v-1.794c0-.988.019-1.887.037-2 .025-.113.531-.887 1.213-1.844 1.275-1.794 1.362-1.969 1.294-2.637-.063-.594-.513-1.162-1.038-1.325-.487-.144-1.094-.05-1.394.225-.106.094-.112-.044-.112-3.456 0-1.956-.025-3.719-.063-3.919-.044-.3-.169-.619-.425-1.125-.013-.025 4-.044 8.919-.044 7.944 0 8.975.012 9.181.1zM6.431 10.406c.213.106.256.206.256.55 0 .244-.094.394-1.075 1.762-1.125 1.575-1.313 1.887-1.419 2.344-.088.387-.088 3.656 0 4.075.037.181.2.581.35.887.244.481.269.563.181.613-.081.044-.1.163-.1.55v.5h1.281l1.281-1.281c1.181-1.181 1.3-1.281 1.5-1.281.419 0 .688.337.563.712-.037.125-.756.887-2.063 2.194l-2 2v2.781H3.842c-1.031 0-1.344-.019-1.344-.081 0-.038-.1-.85-.219-1.794-.212-1.681-.219-1.769-.219-4 0-2.25 0-2.306.225-4.125.125-1.012.263-1.931.306-2.031.069-.156 2.85-3.781 3.306-4.3.169-.194.281-.206.531-.075zm21.444 15.763c0 .475-.031.969-.063 1.094-.106.369-.431.75-.806.944l-.344.169H8.812l.181-.363c.244-.481.319-.931.319-1.9v-.8h18.563v.856zM6.188 29.406v1.531H1.063v-3.063h5.125v1.531z"/><path d="M6.688 5.406V8.75h15.5V2.062h-15.5v3.344zm14.5.032v2.313H7.75V3.126h13.438v2.313zM10.313 12.375v.5h3.125v-1h-3.125v.5zM15.5 12.375v.5h3.063v-1H15.5v.5zM10.313 14.438v.5h3.125v-1h-3.125v.5zM15.5 14.438v.5h3.063v-1H15.5v.5zM9.313 16.531v.531l10.281-.031.019-.519.019-.512H9.313v.531zM13.938 20.656v.531h8.25v-1.063h-8.25v.531zM13.938 22.719v.531l1.55-.012 1.544-.019v-1l-1.544-.019-1.55-.012v.531zM19.125 22.719v.531h3.063v-1.063h-3.063v.531zM25.813 10.375v.556l-.219.106c-.262.125-.575.463-.706.769-.137.325-.119.925.038 1.231.262.512.7.813 1.313.9.4.05.575.213.575.525 0 .444-.6.656-.869.313-.075-.094-.131-.206-.131-.256 0-.069-.106-.081-.512-.069l-.519.019.019.219c.012.119.075.319.137.438.131.256.544.656.744.719.119.037.131.081.131.631v.587h1V15.95l.281-.162c.894-.525 1.031-1.731.269-2.456-.25-.244-.531-.363-.975-.425-.375-.05-.575-.238-.575-.544 0-.238.25-.488.488-.488.225 0 .512.213.512.381 0 .106.05.119.538.119h.538l-.044-.231a2.217 2.217 0 0 0-.156-.456c-.131-.256-.544-.65-.744-.719-.119-.037-.131-.088-.131-.6v-.556h-1v.563zM22.731 12.912c-.025.025-.044.269-.044.537v.488h1.069l-.019-.519-.019-.512-.469-.019c-.262-.006-.494 0-.519.025zM28.919 12.919c-.025.019-.044.262-.044.531v.488h1.063v-1.063h-.488c-.269 0-.512.019-.531.044z"/></symbol><symbol id="network" viewBox="0 0 32 32"><path d="M27.938.044c-.944.156-1.969.869-2.45 1.706a3.507 3.507 0 0 0-.175 3.106l.131.294-5.712 5.713-.363-.238c-.519-.338-1.094-.55-1.794-.669-.506-.088-.7-.088-1.175-.031a4.932 4.932 0 0 0-1.938.656l-.45.275-4.438-4.45.131-.281c.1-.219.131-.406.131-.875.006-.525-.012-.638-.175-.981-.213-.456-.706-.956-1.144-1.163-.25-.112-.412-.138-.956-.138-.594 0-.688.019-1 .175-1.556.8-1.769 2.887-.4 3.938.638.487 1.538.606 2.263.294l.338-.144 4.444 4.444-.225.344c-.5.75-.731 1.556-.731 2.531 0 .969.244 1.806.75 2.556l.2.288-7.356 7.35-.406-.269c-.569-.381-1.05-.544-1.7-.581-1.087-.069-1.956.256-2.7 1.006-1.381 1.381-1.381 3.5-.006 4.887.694.694 1.475 1.025 2.438 1.025 2.494 0 4.181-2.475 3.25-4.775l-.156-.381 3.706-3.7c2.031-2.038 3.719-3.706 3.744-3.706s.206.1.4.225c.45.288.988.506 1.488.606l.381.081.019 2.944.012 2.95-.356.1a3.436 3.436 0 0 0-1.556.931c-1.819 1.819-1.088 4.831 1.387 5.738.5.181 1.581.2 2.088.025 1.438-.488 2.356-1.65 2.475-3.131.131-1.575-.962-3.1-2.556-3.563l-.356-.1.012-2.95.019-2.944.381-.081c.5-.1 1.1-.344 1.506-.613.181-.119.35-.219.375-.219.031 0 1.044.994 2.262 2.212l2.206 2.206-.15.275c-.125.238-.144.363-.144.9 0 .519.025.675.144.931a2.328 2.328 0 0 0 1.575 1.325c1.056.269 2.181-.269 2.669-1.275.15-.313.169-.431.175-.95 0-.525-.019-.637-.181-.988-.238-.506-.769-1.012-1.269-1.2s-1.169-.188-1.669 0l-.369.137-4.438-4.438.2-.288c.688-.994.944-2.481.637-3.675-.125-.475-.469-1.231-.712-1.563l-.131-.181 5.606-5.606.387.269c1.469 1.006 3.331.794 4.531-.506.431-.469.656-.881.813-1.5.219-.85.144-1.556-.256-2.381-.65-1.356-2.2-2.163-3.681-1.913zm1.518 1.319c.413.188.925.687 1.144 1.119.163.331.181.419.181.987 0 .581-.012.656-.2 1.037a2.367 2.367 0 0 1-1.131 1.106c-.306.144-.438.169-.95.169-.525-.006-.637-.025-.969-.188a2.51 2.51 0 0 1-1.125-1.125c-.163-.331-.181-.444-.188-.969 0-.513.025-.644.163-.938.281-.6.663-.962 1.3-1.231.3-.125.425-.144.913-.125.4.019.65.063.863.156zM7.888 4.125c.712.2 1.044 1.025.675 1.675-.425.75-1.55.775-1.969.044-.2-.35-.231-.55-.15-.869.088-.362.394-.706.713-.819.306-.106.431-.112.731-.031zm9.793 7.031a3.561 3.561 0 0 1 2.131 1.537c1.038 1.606.512 3.85-1.131 4.825-.6.356-1.106.494-1.806.494-3.113 0-4.656-3.762-2.438-5.944a3.506 3.506 0 0 1 3.244-.912zm8.982 11.65c.269.119.538.425.619.688.025.087.044.275.044.425-.019.875-1.063 1.387-1.794.887a1.16 1.16 0 0 1-.238-1.688 1.16 1.16 0 0 1 1.369-.313zM4.338 25.194c.494.181 1.031.688 1.263 1.194.156.344.181.469.181.956 0 .738-.194 1.194-.725 1.681-.487.45-.919.619-1.587.625-.438 0-.563-.025-.919-.194-.513-.244-.944-.656-1.163-1.131-.15-.313-.169-.438-.169-.981 0-.563.019-.663.181-.994.544-1.113 1.775-1.594 2.938-1.156zm13.499 1.2c.444.206.938.7 1.15 1.156.144.306.169.438.169.95s-.025.644-.169.95a2.453 2.453 0 0 1-1.063 1.119c-.375.206-.425.212-1.05.212-.613 0-.681-.012-1.031-.2a2.458 2.458 0 0 1-1.081-1.131c-.144-.306-.169-.438-.169-.95 0-.506.025-.644.162-.938.294-.625.856-1.113 1.487-1.294.438-.125 1.175-.063 1.594.125z"/></symbol><symbol id="prototyping" viewBox="0 0 32 32"><path d="M21.194.656A2.703 2.703 0 0 0 19.25 2.75c-.031.181-.063.956-.063 1.725v1.4H6.374v-.769c0-1.175-.244-1.85-.906-2.513-.881-.881-2.15-1.181-3.306-.781C1.137 2.162.287 3.125.068 4.174c-.05.237-.069 3.831-.069 12.406 0 10.644.013 12.125.094 12.45a3.312 3.312 0 0 0 2.069 2.294l.369.144h13.438c12.944 0 13.45-.006 13.781-.119a3.349 3.349 0 0 0 2.075-2.012l.144-.369.019-10.056c.006-6.694-.006-10.175-.05-10.406-.238-1.287-1.356-2.362-2.669-2.563-.256-.037-1.363-.069-2.569-.069h-2.125l-.025-1.581c-.031-1.438-.044-1.606-.169-1.931-.3-.769-.856-1.35-1.55-1.613-.469-.175-1.188-.219-1.637-.094zm1.156 1.063c.406.119.725.394.925.794.156.306.163.375.163 1.313v.987H20.25v-.862c0-1.019.081-1.369.413-1.75.444-.519 1.019-.681 1.688-.481zM4.088 2.894c.412.194.787.556 1.019.994l.175.331.019 9.769.013 9.769-.206-.156c-1.038-.794-2.644-.825-3.706-.069l-.306.219-.019-1.919c-.006-1.063-.006-5.444 0-9.738l.019-7.813.137-.294c.512-1.094 1.788-1.581 2.856-1.094zm19.35 3.512v.531H20.25V6.45c0-.269.019-.513.044-.531.019-.025.738-.044 1.594-.044h1.55v.531zm-4.25 2.238v1.713l-2.556 1.825c-1.406 1-2.594 1.869-2.644 1.925-.063.075-.088.569-.113 2.213l-.031 2.106-2.637-2.1-2.631-2.106-.025-2.387-.019-2.381-.15-.162a.516.516 0 0 0-.763 0l-.15.162v2.575c0 2.2.013 2.6.094 2.694.05.063 1.494 1.238 3.206 2.606l3.106 2.488v3.313l.206.212c.25.262 7.369 5.344 7.613 5.438a.496.496 0 0 0 .356 0c.231-.087 7.438-5.238 7.656-5.469l.169-.181v-4.375c0-2.606-.025-4.431-.063-4.525-.038-.106-.9-.756-2.656-2.006l-2.594-1.856V6.941h2.113c1.25 0 2.269.025 2.488.069.719.131 1.256.556 1.581 1.237l.163.35.019 9.969c.012 9.806.012 9.975-.113 10.381-.2.675-.738 1.188-1.45 1.394-.3.094-1.688.1-13.488.087l-13.156-.019-.394-.181a2.116 2.116 0 0 1-1.144-1.288c-.119-.387-.125-.556-.106-1.856l.019-1.431.206-.413c.656-1.344 2.438-1.606 3.444-.519.338.363.506.744.569 1.275.044.331.088.438.219.55.219.188.494.188.688-.012l.156-.15v-9.681c0-5.325.019-9.7.044-9.719.019-.025 2.906-.044 6.406-.044h6.363v1.706zm2.137.55.019 1.194.175.15c.212.181.475.194.675.031.144-.119.15-.15.181-1.331l.031-1.206 1.031-.037v11.262l-1.031-.038-.031-3.613c-.031-3.525-.038-3.619-.156-3.706-.194-.144-.381-.169-.569-.075-.337.156-.337.119-.337 3.912v3.519l-1.031-.038-.019-5.531c-.006-3.044 0-5.569.019-5.613.019-.05.188-.075.525-.075h.5l.019 1.194zm-2.15 6.612-.019 1.362-1.875-1.338c-1.031-.738-1.875-1.369-1.875-1.4 0-.037.844-.669 1.875-1.406l1.875-1.338.019 1.375c.006.756.006 1.988 0 2.744zm7.594-2.556c.881.631 1.606 1.162 1.606 1.181s-.863.65-1.906 1.394l-1.906 1.356v-5.506l.3.213c.163.119 1.019.731 1.906 1.363zm-9.625 3.794 2.044 1.462v1.319l.85 2.569c.462 1.413.887 2.644.938 2.744.106.212.406.406.7.462.331.063.631-.031.894-.275.238-.225.281-.331 1.119-2.9l.875-2.669.006-.644v-.644l2.069-1.469c1.144-.806 2.094-1.481 2.125-1.488.025-.012.05 1.594.05 3.575v3.594l-3.469 2.475-3.462 2.481-.206-.144a981.05 981.05 0 0 1-6.6-4.719c-.137-.119-.144-.144-.125-1.106l.019-.981.406.325c.331.269.444.331.644.331.325 0 .494-.2.469-.556-.019-.244-.05-.281-.781-.875l-.769-.619v-1.9c0-1.506.019-1.894.081-1.856.037.025.994.706 2.125 1.506zm6.081 3.362-.669 2.05a77.694 77.694 0 0 1-.669 2.006c-.025.044-1.381-3.975-1.387-4.106 0-.025.619-.044 1.381-.044 1.219 0 1.375.012 1.344.094z"/><path d="M9.762 9.269a.53.53 0 0 0 .025.738c.137.131.231.15.731.175.706.025 1.006-.056 1.144-.313a.503.503 0 0 0-.1-.619c-.113-.113-.213-.125-.894-.125-.725 0-.781.006-.906.144zM12.944 9.287c-.175.219-.162.481.019.694l.15.175h3.65l.15-.175c.194-.231.194-.506-.006-.7l-.15-.156h-3.688l-.125.162zM9.787 11.381a.38.38 0 0 0-.162.338c0 .575.075.594 2.106.594 1.213 0 1.719-.025 1.831-.081.338-.169.394-.588.125-.856-.119-.119-.219-.125-1.931-.125-1.731 0-1.806.006-1.969.131z"/></symbol><symbol id="speed" viewBox="0 0 32 32"><path d="M14.125 1.406c-3.588.431-6.831 2.013-9.394 4.556C.612 10.062-.95 15.956.587 21.568a15.78 15.78 0 0 0 1.681 3.913l.375.644h2.013l1.313-1.15c.725-.631 1.313-1.181 1.313-1.219s-.25-.35-.55-.694l-.55-.625-.669.575c-.362.319-.944.825-1.288 1.125-.35.306-.644.55-.669.55s-.15-.206-.281-.45C2.112 22.043 1.5 19.718 1.5 17.487v-.675h3.188v-1.813h-3l.038-.269c.087-.563.462-1.919.731-2.606a14.552 14.552 0 0 1 1.962-3.569l.419-.563 2.256 2.256 1.25-1.25-1.119-1.119c-.612-.612-1.106-1.144-1.094-1.181.081-.219 1.8-1.494 2.787-2.069 1.488-.856 3.588-1.544 5.344-1.744l.488-.05.012 1.844.019 1.85h1.75l.019-1.869.012-1.869.519.044c2.8.237 5.319 1.175 7.512 2.788.7.519 1.469 1.181 1.469 1.275 0 .037-.512.581-1.137 1.206l-1.144 1.144 1.25 1.25 1.144-1.137 1.144-1.144.125.156c.413.519 1.194 1.781 1.556 2.531.587 1.2 1.075 2.675 1.275 3.856l.044.238h-3.131v1.813h3.313v.675c0 2.212-.644 4.669-1.756 6.719l-.269.488-2.475-2.475-.637.644-.644.637 2.625 2.625h2.012l.375-.644c2.012-3.4 2.7-7.262 1.988-11.144-.369-1.975-1.181-4.031-2.256-5.675-2.681-4.094-6.856-6.7-11.644-7.256-.944-.113-2.775-.113-3.694 0z"/><path d="m12.95 15.081-.269.275 1.287 1.594c.706.875 1.281 1.637 1.281 1.7 0 .056.044.206.1.337.444 1.069 1.919 1.094 2.406.044.225-.488.1-1.113-.294-1.481-.194-.181-.575-.363-.762-.363-.069 0-.856-.538-1.756-1.188-.9-.656-1.656-1.188-1.681-1.188s-.169.119-.313.269zM8.875 29.781v.906h14.25v-1.813H8.875v.906z"/></symbol><symbol id="vector" viewBox="0 0 32 32"><path d="M1.269.113c-1.55.556-1.706 2.706-.238 3.419.894.444 1.95.138 2.438-.706l.188-.319 3.119-.006h3.119l-.831.406a13.07 13.07 0 0 0-2.269 1.394c-.431.325-.563.463-.612.638-.088.287.044.575.325.719.263.138.487.075.888-.244 1.644-1.331 4.031-2.337 6.531-2.75l.2-.038v.313c0 .381.1.606.319.725.25.125 2.862.125 3.112 0 .219-.119.319-.344.319-.725v-.313l.206.038c2.25.388 4.056 1.069 5.738 2.188.331.219.719.494.863.612.319.269.563.325.813.194.281-.144.413-.431.325-.713-.119-.394-1.363-1.269-2.837-2.013l-.863-.431h3.113l3.113.006.188.319c.581 1.006 1.962 1.212 2.863.431.575-.513.756-1.481.4-2.206-.65-1.319-2.531-1.394-3.262-.125l-.188.319-10.469.006V.876c0-.2-.031-.444-.075-.531-.144-.313-.3-.344-1.8-.344s-1.656.031-1.8.344c-.044.088-.075.331-.075.531v.375H3.661L3.511.97C3.105.201 2.098-.18 1.274.114zm.912 1.224c.419.219.406.894-.025 1.087-.319.144-.669.044-.819-.244a.618.618 0 0 1 .844-.844zm14.444.538V2.5h-1.25V1.25h1.25v.625zm13.806-.538c.419.219.406.894-.025 1.087-.569.256-1.119-.319-.819-.856.163-.294.525-.394.844-.231zM4.694 6.338C4.15 6.638 4.381 7.5 5 7.5c.319 0 .625-.306.625-.619a.63.63 0 0 0-.931-.544zM15.688 6.338c-.113.063-1.019 1.669-3.338 5.919-1.756 3.206-3.2 5.9-3.213 5.988-.012.1.4 1.281 1.106 3.156.625 1.644 1.131 3.025 1.131 3.063s-.1.131-.219.212c-.488.313-.825 1.056-.762 1.675.063.637.425 1.188.95 1.469l.281.15v1.762c0 1.231.025 1.813.075 1.925.156.35.088.344 4.3.344s4.144.006 4.3-.344c.05-.113.075-.694.075-1.925V27.97l.281-.15c.525-.281.887-.831.95-1.469.063-.619-.275-1.363-.762-1.675-.119-.081-.219-.175-.219-.212 0-.044.506-1.419 1.131-3.063.706-1.875 1.119-3.056 1.106-3.156-.012-.087-1.456-2.781-3.212-5.988-2.494-4.575-3.219-5.85-3.35-5.919a.63.63 0 0 0-.613 0zm-.313 6.612-.006 3.581-.319.188c-1.269.731-1.194 2.613.125 3.262.294.144.438.175.825.175s.531-.031.825-.175c1.319-.65 1.394-2.531.125-3.262l-.319-.188v-3.594c0-3.1.012-3.575.087-3.438.044.088 1.069 1.956 2.275 4.156l2.188 4-.825.031c-.456.019-.875.056-.938.087-.131.063-.294.356-.294.531 0 .212.144.45.319.544.125.063.413.087 1.025.087.462 0 .844.019.844.044 0 .031-.45 1.231-.994 2.675l-.988 2.625h-6.662l-.988-2.625c-.55-1.444-.994-2.644-.994-2.675 0-.025.381-.044.844-.044.613 0 .9-.025 1.025-.087a.667.667 0 0 0 .319-.544c0-.175-.162-.469-.294-.531-.063-.031-.481-.069-.938-.087l-.825-.031 2.262-4.137c1.244-2.281 2.269-4.144 2.281-4.144.006 0 .012 1.613.012 3.575zm.931 4.825c.419.219.406.894-.025 1.087-.319.144-.669.044-.819-.244a.618.618 0 0 1 .844-.844zm3.725 7.862c.181.081.344.344.344.55s-.163.469-.344.55c-.231.106-7.831.106-8.063 0-.431-.194-.444-.856-.025-1.087.206-.113 7.838-.125 8.088-.012zm-.906 3.769v1.344h-6.25v-2.688h6.25v1.344zM26.694 6.338c-.544.3-.313 1.162.306 1.162.319 0 .625-.306.625-.619a.63.63 0 0 0-.931-.544zM3.294 8.406c-.188.106-.669 1.012-1.063 2.006-.275.681-.613 1.9-.762 2.725l-.106.613H.925c-.494 0-.738.1-.85.344-.106.225-.106 2.837 0 3.063.144.313.3.344 1.8.344s1.656-.031 1.8-.344c.112-.25.106-2.856-.013-3.088-.119-.219-.344-.319-.731-.319-.288 0-.306-.012-.281-.144.019-.075.063-.306.1-.512.2-1.088.594-2.231 1.163-3.387.325-.656.344-.719.275-.919a.882.882 0 0 0-.181-.313c-.163-.15-.506-.181-.712-.069zM2.5 15.625v.625H1.25V15H2.5v.625zM28.188 8.356c-.169.063-.306.219-.375.431-.069.2-.05.262.275.919.569 1.156.962 2.3 1.163 3.388.038.206.081.438.1.512.025.131.006.144-.281.144-.387 0-.613.1-.731.319-.119.231-.125 2.838-.012 3.088.144.313.3.344 1.8.344s1.656-.031 1.8-.344c.05-.113.075-.6.075-1.531s-.025-1.419-.075-1.531c-.113-.244-.356-.344-.856-.344h-.438l-.038-.238a15.12 15.12 0 0 0-1.281-4.119c-.344-.713-.462-.9-.613-.981-.2-.1-.344-.119-.512-.056zm2.562 7.269v.625H29.5V15h1.25v.625z"/></symbol></defs></svg>