<svg aria-hidden="true" style="position: absolute; width: 0; height: 0; overflow: hidden;" version="1.1" xmlns="http://www.w3.org/2000/svg" xmlns:xlink="http://www.w3.org/1999/xlink">
<defs>
<symbol id="tick" xmlns="http://www.w3.org/2000/svg"  version="1.0" viewBox="0 0 195 177">
  <path d="M87.7 8c-6 1.6-11 4.5-15.4 9.2-4 4.4-4 4.4-9.9 4-8.5-.6-16.3 2.6-22.9 9.2-6.9 6.9-8.8 11.3-9.3 21.1l-.4 8-5.3 5.7C18.3 71.9 16 77.7 16 87s2.3 15.1 8.6 22c5.4 5.7 5.4 5.8 5.4 12.2 0 3.5.7 8.5 1.5 10.9 2.1 6 9 13.8 15.6 17.4 4.7 2.6 6.4 3 13.3 3h8l4.3 4.6c6.2 6.6 12.7 9.3 22.8 9.3 6.8.1 8.9-.3 13.7-2.7 3.1-1.5 7.3-4.6 9.4-6.9l3.7-4.2h7.6c9.1-.1 14.9-2.6 21.5-9.2 6.6-6.5 9.1-12.3 9.3-21.6.2-7.6.2-7.7 4.2-11.3 2.2-2 5.3-6.2 6.8-9.3 2.4-4.9 2.8-6.9 2.8-14.2 0-7.3-.4-9.3-2.8-14.2-1.5-3.1-4.6-7.3-6.8-9.3-4-3.6-4-3.7-4.2-11.3-.2-9.3-2.7-15.1-9.3-21.6-6.6-6.6-12.4-9.1-21.5-9.2h-7.6l-3.7-4.2C111.5 9.4 98.1 5.4 87.7 8zm15.2 15.5c3.8 1.9 7.4 6.4 9.7 11.9 1.1 2.5 2.2 4.6 2.5 4.6.4 0 2.6-.9 5-2 5.2-2.3 12.9-2.6 16.8-.6 4.7 2.5 8.9 8.1 9.6 12.8.5 3.3.1 5.9-1.8 10.9l-2.5 6.6 5.2 2.2c17.6 7.3 17.7 26.9.2 34.2l-5.3 2.2 2.5 7.2c2.4 6.5 2.5 7.6 1.4 11.3-3.4 11.4-14.3 16.1-25.7 11.2-2.6-1.1-5-2-5.4-2-.4 0-1.5 2.2-2.5 5-3.3 9.1-11.2 14-20.6 12.7-5.9-.8-9.9-4.2-13.2-11.4-1.7-3.4-3.1-6.3-3.1-6.3-.1 0-2.6.9-5.5 2-9.2 3.5-15.7 2.4-21.3-3.7-5.6-6-6.3-11.3-2.6-20.3l2.2-5.5-7-3.5c-8.7-4.4-11.9-9.3-11.2-17.6.5-7.1 3.5-10.9 11.6-14.8l6.6-3.1-2.2-5.5c-3.8-9.3-2.8-15.4 3.4-21.1 5.9-5.5 11.6-6.3 20.5-2.9 2.8 1.1 5.3 1.9 5.4 1.7.1-.1 1.7-3.1 3.6-6.7 2.5-4.8 4.4-7 7.3-8.7 4.7-2.7 12.2-3 16.4-.8z"/>
  <path d="m101.8 75.9-14.5 14-6.4-6.5c-3.5-3.5-6.8-6.4-7.4-6.4C72.2 77 63 86.2 63 87.4c0 1.3 23.2 24.6 24.5 24.6 1.6 0 39.5-38.3 39.5-40 0-1.7-7.9-10-9.6-10-.7 0-7.7 6.3-15.6 13.9z"/>
</symbol>
<symbol id="computer" viewBox="0 0 32 32">
      <path d="M1.044.087A1.63 1.63 0 0 0 .206.8l-.175.294-.019 5.5c-.019 5.969-.025 5.775.325 6.238.087.119.312.294.487.394.331.181.338.181 1.569.2l1.231.025v2.55h3.725l-.256.531-.25.525-1.106.006H4.625v5.613l-1.2.025c-1.112.019-1.231.031-1.5.163a1.745 1.745 0 0 0-.775.8c-.069.169-.087.731-.087 2.712v2.5H-.012l.025 1.012c.019.981.025 1.031.194 1.313.194.331.494.587.838.712.369.125 8.894.125 9.262-.006.381-.131.65-.363.856-.731.175-.325.181-.35.181-1.3v-.969l-1.031-.038v-2.45c-.006-2.637-.012-2.712-.338-3.137a1.907 1.907 0 0 0-.494-.394l-.325-.169-3.469-.038v-4.619h.994l.037.231c.169 1.1.431 1.669 1.063 2.306.512.512 1.125.85 1.813.994.65.137 12.162.137 12.813 0 1.344-.281 2.481-1.387 2.781-2.706l.075-.325 1.044.012 1.038.019.019 2.05.012 2.044h-3.625V32h8.25v-9.313h-3.625v-5.125h-3.1l-.137-.456c-.081-.244-.156-.488-.175-.531-.025-.056.231-.075 1.188-.075h1.225v-6.188h2.563v-.994l-1.031-.037v-1l1-.031c1.094-.031 1.313-.094 1.663-.481.413-.444.4-.306.4-3.644V1.094l-.175-.3c-.2-.344-.575-.637-.925-.731-.156-.044-1.625-.063-4.163-.05-3.887.019-3.925.019-4.175.156a1.578 1.578 0 0 0-.712.769c-.125.269-.131.4-.131 3.188s.006 2.919.131 3.188c.169.375.4.612.775.787.281.137.394.15 1.238.15h.919v1.063h-1v1h2.563v5.188h-2.056l-.469-.338c-.256-.181-.606-.381-.775-.444l-.306-.113-.038-.506c-.106-1.613-1.194-3-2.788-3.563-.475-.162-.619-.188-1.256-.188-.825-.006-1.381.131-2.05.506-.419.231-1.088.819-1.325 1.162l-.137.206-.45-.156c-.381-.131-.556-.156-1.225-.156-.681 0-.844.019-1.287.169-1.006.338-1.912 1.106-2.381 2.019-.131.262-.281.463-.331.463s-.287.088-.531.188l-.431.188h-3.85v-1.5h1.081c.588 0 1.2-.031 1.35-.069.381-.088.787-.387.988-.731l.175-.294.019-5.531c.012-5.019.006-5.556-.088-5.806A1.666 1.666 0 0 0 7.419.17C7.169.032 7.113.032 4.225.02 1.881.007 1.238.02 1.05.089zM7 1.125c.138.075.25.381.25.694v.244H1.062v-.375c0-.669-.206-.625 3.037-.625 1.694 0 2.825.025 2.9.063zm23.813.063c.119.119.125.206.125 2.063v1.938l-8.219-.031-.019-1.781c-.006-.981 0-1.844.019-1.925a.673.673 0 0 1 .156-.262c.119-.119.225-.125 3.969-.125 3.762 0 3.844 0 3.969.125zM7.25 5.688v2.563H1.062V3.126H7.25v2.563zm23.688.849c0 .425-.063.556-.319.644-.281.094-7.269.094-7.55 0-.244-.088-.381-.338-.381-.713v-.281h8.25v.35zm-3.063 2.244v.531h-2.063V8.249h2.063v.531zm-20.638 1.9c-.019 1.356-.019 1.375-.169 1.531l-.15.162H4.155c-2.7 0-2.769 0-2.931-.131l-.163-.125V9.312h6.194l-.019 1.369zm12.107.782c.462.131.725.25 1.075.519a3.055 3.055 0 0 1 1.212 2.931c-.038.262-.063.488-.05.5.006.006.225.063.481.113.613.131 1.038.344 1.4.712.394.4.519.6.663 1.069a2.548 2.548 0 0 1-1.006 2.875c-.706.469-.306.45-7.25.431l-6.213-.019-.313-.144c-.5-.225-.781-.456-1.075-.844-.975-1.325-.519-3.125.975-3.887.119-.063.412-.144.656-.181l.431-.075.106-.313c.475-1.387 1.581-2.219 2.975-2.219.637-.006.931.075 1.569.419.287.15.525.275.537.275s.125-.206.25-.456c.413-.819 1.025-1.369 1.844-1.65.494-.162 1.244-.194 1.731-.056zM9.106 23.9l.175.15.037 4.825H2.062v-4.819l.156-.15.15-.156h6.563l.175.15zm21.832 1.381v1.531H24.75v-3.063h6.188v1.531zm0 4.125v1.531H24.75v-3.063h6.188v1.531zm-20.625.869c0 .244-.037.375-.131.5l-.125.163H5.682c-4.287 0-4.369 0-4.494-.125-.1-.1-.125-.206-.125-.5v-.375h9.25v.337z"/>
      <path d="M3.125 10.844v.531l1.019-.012 1.013-.019v-1l-1.013-.019-1.019-.012v.531zM25.813 25.281v.531h1v-1.063h-1v.531zM27.875 25.281v.531h2.063v-1.063h-2.063v.531zM25.813 29.406v.531h2.063v-1.063h-2.063v.531zM28.919 28.919c-.025.019-.044.262-.044.531v.488h1.063v-1.063h-.488c-.269 0-.512.019-.531.044z"/>
    </symbol>
    <symbol id="customer-service" viewBox="0 0 32 32">
      <path d="M22.631.106c-.319.113-.681.45-.85.8-.119.238-.125.387-.125 2.719 0 2.412 0 2.475.137 2.719.075.138.225.338.344.45.356.344.613.412 1.569.444l.863.025-.031.169c-.113.544-.481 2.775-.462 2.819.012.031 1.119-.631 2.456-1.475l2.438-1.525h.731c.4 0 .875-.031 1.05-.069a1.499 1.499 0 0 0 1.012-.8l.175-.344V3.6c0-2.237-.012-2.462-.119-2.694-.144-.319-.613-.738-.931-.831C30.713.019 29.569 0 26.775.006c-3.319 0-3.906.019-4.144.1zm8.15 1.113.156.15v2.194c0 2.237-.012 2.369-.244 2.544-.069.05-.4.075-1.031.081h-.938l-1.613 1.006c-.887.556-1.625 1-1.637.988s.056-.469.15-1.013l.169-.981h-2.8l-.15-.156-.156-.15V3.619c0-2.244 0-2.269.137-2.413l.131-.144h7.675l.15.156z"/>
      <path d="m23.7 2.575.019.519 3.081.019 3.075.013V2.063h-6.194l.019.513zM23.7 4.638l.019.519 2.05.019 2.044.013V4.126h-4.131l.019.513zM28.875 4.656v.531h1V4.124h-1v.531zM14.594 1.6c-.644.069-1.85.3-2.45.469a14.388 14.388 0 0 0-6.362 3.712c-1.775 1.769-3 3.831-3.681 6.194l-.206.731-.456-.762c-.25-.419-.481-.775-.512-.794-.037-.025-.675.313-.856.45-.019.019 1.394 2.419 1.738 2.956.044.063.381-.113 1.544-.806.825-.494 1.5-.9 1.512-.906.013-.012-.438-.794-.513-.887 0-.006-.3.169-.663.387-.362.225-.675.406-.7.406-.063 0 .188-.844.481-1.6C5.039 7.1 8.439 4.094 12.664 3a13.647 13.647 0 0 1 6.606 0l.669.169.15-.475c.113-.35.131-.487.075-.519-.131-.075-1.081-.3-1.831-.431-.569-.1-1.05-.137-2.113-.15a30.76 30.76 0 0 0-1.625.006z"/>
      <path d="M14.969 5.231c-1.281.2-2.606.844-3.575 1.731-.863.794-1.606 2.044-1.938 3.269l-.169.613-.006 2.563v2.563l.162.344c.238.506.512.788 1.006 1.025l.444.212.169.538c.1.3.3.756.45 1.019.3.538 1.088 1.381 1.563 1.675.213.131.3.231.3.325 0 .156.15.119-2.2.55-.844.15-1.694.337-1.881.406-1 .375-1.763 1.169-2.144 2.238-.094.269-.188.5-.213.525-.019.031-.45-.369-.956-.875-1.244-1.256-1.25-1.075.156-2.494l1.081-1.081-1.906-1.906-1.906-1.913-1.381 1.394C.862 19.127.612 19.408.45 19.752c-.306.637-.406 1.113-.375 1.837.031.7.163 1.15.5 1.7.131.219 1.55 1.681 4.106 4.231 3.656 3.637 3.944 3.906 4.344 4.1 1.125.531 2.494.475 3.475-.144.169-.106.956-.788 1.744-1.506l1.438-1.313-.387-.387-.381-.394h5.513c3.031 0 5.512-.019 5.512-.05 0-.163-1.275-3.825-1.444-4.15-.269-.5-.913-1.144-1.4-1.406-.519-.269-.831-.35-2.625-.675-2.075-.375-1.906-.331-1.9-.488 0-.094.144-.244.475-.481.262-.188.594-.488.75-.663l.275-.325.731-.025c.587-.019.781-.05.981-.156a1.8 1.8 0 0 0 .744-.738c.131-.25.131-.281.131-3.938 0-3.313-.012-3.738-.113-4.206-.556-2.581-2.387-4.519-4.919-5.206-.356-.1-.706-.131-1.469-.15-.55-.013-1.081-.006-1.188.013zm1.925 1.05c2.044.356 3.762 1.806 4.425 3.738.25.731.306 1.175.306 2.494v1.162l-.25-.094c-.244-.1-.25-.106-.25-.406v-.3h-.594c-1.519 0-2.95-.619-4.087-1.775l-.463-.469-.55.519c-1.238 1.181-2.506 1.725-4.025 1.725h-.594v.3c0 .3-.006.306-.256.406l-.256.1.031-1.45c.031-1.619.069-1.825.488-2.719.75-1.612 2.219-2.806 3.875-3.162.894-.188 1.425-.206 2.2-.069zm-.488 6.175c.813.669 1.988 1.2 3 1.356.275.044.538.088.581.1.056.019.075.387.075 1.6 0 1.7-.044 2.019-.337 2.688l-.163.363-1.794.012-1.8.019v1l2.688.063-.294.206a4.564 4.564 0 0 1-1.538.675c-.619.137-1.575.094-2.137-.094-1.269-.431-2.238-1.425-2.669-2.725-.156-.475-.162-.575-.194-2.119-.031-1.769-.037-1.725.338-1.725.3 0 1.325-.275 1.838-.5.481-.2 1.569-.887 1.775-1.119.069-.075.144-.131.175-.131s.231.15.456.331zm-5.593 3.056v.881l-.162-.15a1.45 1.45 0 0 1-.25-.319c-.106-.2-.113-.694-.019-.881.094-.175.313-.419.381-.419.025 0 .05.4.05.887zm10.699-.506c.219.406.125.912-.225 1.237l-.163.15v-1.781l.137.088c.075.05.188.188.25.306zm.113 2.775c0 .419-.019.494-.156.625-.119.125-.212.156-.456.156h-.306l.144-.425c.081-.231.15-.462.15-.512 0-.081.363-.269.581-.306.025 0 .044.206.044.462zM5.5 20.656l-.281.281-1.188-1.188-1.181-1.188.275-.281.281-.281 2.375 2.375-.281.281zm-1.213 1.25a1.538 1.538 0 0 0-.106 1.575c.188.363 4.169 4.3 4.475 4.431.481.2 1.225.087 1.563-.225.131-.119.131-.119 1.313 1.069l1.188 1.188-.325.306a3.68 3.68 0 0 1-.688.481c-.338.163-.419.175-1.081.175-1.175 0-.844.262-5.294-4.181-4.169-4.163-4.056-4.031-4.219-4.913-.137-.738.119-1.563.681-2.188l.288-.325 1.181 1.188 1.187 1.181-.162.238zM16 21.644c.506 0 .9-.038 1.125-.1.188-.05.35-.087.356-.081s-.331.356-.75.775l-.762.762-1.55-1.55.4.1c.262.063.662.1 1.181.094zm-1.175 1.712 1.113 1.113 2.238-2.238 1.962.356c1.581.288 2.031.387 2.337.538.425.206.813.55 1.056.938.137.212.969 2.538.969 2.7 0 .025-2.4.05-5.331.05h-5.325l-.969-.969c-.531-.531-.994-.969-1.019-.969-.031 0-.456.363-.944.8C9.5 26.963 9.449 27 9.237 27c-.162 0-.3-.106-.831-.631l-.644-.631.244-.719c.275-.819.519-1.238.894-1.55.488-.394.844-.506 2.756-.869 1-.181 1.869-.337 1.938-.344.081-.006.5.369 1.231 1.1zm-.962 5.563-.331.331-1.188-1.188-1.188-1.194.338-.313.338-.319 2.356 2.356-.325.325zM28.6 9.762c-.05.081-.456.756-.906 1.506l-.813 1.356.262.162c.144.088.325.2.4.25s.163.088.188.088c.031 0 .244-.325.481-.725.288-.475.45-.694.481-.637.025.044.119.35.206.675 1.063 3.913.3 8.119-2.056 11.406-.2.275-.369.531-.387.569-.025.063.637.65.738.65.075 0 .769-.994 1.194-1.706 1.337-2.25 2-4.694 2.006-7.356 0-1.438-.206-2.887-.581-4.119-.069-.225-.113-.412-.106-.425.019-.012.563.306 1.275.738l.2.125.262-.444c.144-.244.25-.45.238-.463a194.695 194.695 0 0 0-2.869-1.725c-.1-.05-.137-.037-.212.075z"/>
    </symbol>
    <symbol id="customer-support" viewBox="0 0 32 32">
      <path d="M2.406.119c-.1.063-.675.606-1.262 1.206C.138 2.344.063 2.431.063 2.644c0 .188.219.619 1.1 2.156.6 1.056 1.131 1.956 1.175 2 .044.05.569.206 1.163.356l1.087.275 6.819 6.819.75-.75-3.469-3.475c-1.906-1.906-3.537-3.506-3.625-3.55s-.575-.188-1.094-.313l-.938-.231-.875-1.544a64.128 64.128 0 0 1-.894-1.6c-.006-.038.331-.413.75-.831l.769-.762 1.6.913 1.6.919.237 1 .244 1.006 3.531 3.55 3.537 3.544.75-.75-6.838-6.844-.256-1.025c-.144-.563-.281-1.075-.313-1.131C6.804 2.245 2.879.001 2.717.001c-.069 0-.206.056-.313.119z"/>
      <path d="M24.5.1c-2.706.506-4.75 2.606-5.188 5.356-.075.463-.056 1.788.031 2.075.031.1-1.038 1.194-5.8 5.956l-5.838 5.838-.631-.075c-2.6-.306-5.181 1.125-6.356 3.531-.563 1.144-.744 2.094-.644 3.406.175 2.35 1.762 4.475 4.006 5.369.819.325 1.631.462 2.575.425.987-.038 1.65-.194 2.444-.569 1.906-.9 3.181-2.506 3.594-4.506.125-.587.156-1.775.063-2.25l-.05-.25 1.412-1.419 1.406-1.425.7.688c.831.825.906.844 1.4.406.262-.231.356-.281.569-.281.331 0 .556.231.556.569 0 .194-.05.3-.281.556-.506.575-.769.238 3.269 4.256 3.238 3.231 3.581 3.556 3.994 3.769 1.625.831 3.587.581 4.9-.637.975-.906 1.369-1.813 1.369-3.169 0-1.038-.2-1.712-.744-2.481-.1-.15-1.731-1.813-3.619-3.7-3.375-3.363-3.444-3.431-3.644-3.387-.106.019-.319.15-.469.288-.144.131-.337.262-.431.288-.344.087-.719-.238-.719-.625 0-.1.106-.275.281-.475.456-.512.425-.625-.394-1.456l-.669-.669 2.813-2.813.5.069c.569.081 1.425.044 2.063-.094 2.325-.494 4.169-2.225 4.844-4.537.287-.963.219-3.15-.1-3.506-.137-.15-.425-.206-.6-.119-.081.044-.9.831-1.831 1.75l-1.688 1.675-1.306-.45-1.313-.444-.431-1.306-.431-1.3 1.725-1.731C27.456 1.071 27.562.952 27.562.74c0-.325-.163-.481-.594-.588-.569-.144-1.831-.169-2.469-.05zm-.019 2.45C23.112 3.925 23 4.05 23 4.25c0 .237 1 3.3 1.15 3.531.075.112.462.269 1.8.713.938.313 1.788.569 1.887.569.156 0 .406-.225 1.631-1.444.837-.831 1.475-1.412 1.494-1.375.025.037.012.356-.025.706-.25 2.269-1.769 4.031-3.969 4.619-.606.162-1.65.188-2.35.063-.419-.075-.494-.069-.656.012-.256.137-12.256 12.162-12.325 12.356-.044.106-.031.306.025.594.188.981.075 2.181-.3 3.075-.625 1.506-1.813 2.594-3.425 3.119-.487.163-.612.175-1.5.175-1.144.006-1.462-.063-2.406-.525-1.306-.631-2.225-1.669-2.694-3.05a5.337 5.337 0 0 1 3.831-6.956 6.025 6.025 0 0 1 2.244-.056c.25.044.513.063.594.044.088-.025 2.825-2.719 6.3-6.194 5.688-5.688 6.15-6.169 6.156-6.362 0-.112-.038-.419-.081-.675-.1-.563-.056-1.606.087-2.156.163-.6.606-1.462 1.012-1.969a5.324 5.324 0 0 1 4.05-1.994l.438-.006-1.488 1.487zm-3 14.875c-.163.319-.175.406-.15.8.019.337.063.519.188.731a1.665 1.665 0 0 0 2.219.656l.306-.163 6.175 6.175-4.563 4.563-6.175-6.175.169-.331c.3-.606.188-1.413-.262-1.887a1.693 1.693 0 0 0-1.956-.337l-.331.175-.863-.863 4.606-4.519.819.819-.181.356zm9.4 9.525c.044.181.081.556.075.837-.025 1.825-1.581 3.25-3.425 3.131-.275-.019-.594-.069-.712-.113l-.206-.075 2.05-2.05c1.131-1.131 2.075-2.056 2.094-2.056.025 0 .081.15.125.325z"/>
      <path d="M15.656 15.625 9.781 21.5l.75.75 11.75-11.75-.75-.75-5.875 5.875zM4.419 22.637c-.319.438-1.731 2.856-1.731 2.975 0 .206 1.737 3.05 1.912 3.131.106.044.737.069 1.869.069h1.719l.181-.175c.294-.275 1.781-2.819 1.781-3.044-.006-.206-1.55-2.85-1.787-3.05-.113-.094-.306-.106-1.963-.106H4.569l-.15.2zm3.956 1.919.637 1.063-.637 1.063-.644 1.069H5.144l-.638-1.056c-.344-.581-.631-1.075-.631-1.094 0-.025.925-1.587 1.163-1.962.088-.137.112-.137 1.4-.137h1.306l.631 1.056zM21.906 21.875l-.375.375 5.344 5.344.75-.75-5.344-5.344-.375.375z"/>
    </symbol>
    <symbol id="trophy" viewBox="0 0 32 32">
      <path d="M8 .056C7.544.2 7.15.55 6.969.981c-.056.138-.094.419-.094.744v.525H5.687c-.65 0-1.331.031-1.513.069-1.031.219-1.775 1.044-1.85 2.044-.081 1.194.781 3.637 1.85 5.231.987 1.475 2.413 2.838 3.794 3.637.412.238.419.238.75.938 1.031 2.175 2.331 3.775 3.875 4.781.306.2.681.406.825.462.287.113.3.137.275.712a3.225 3.225 0 0 1-.887 2.031c-.425.45-.863.725-1.525.956-.781.269-.744.169-.769 2.363l-.019 1.837h-.9c-.756 0-.956.019-1.25.131-.456.169-.975.65-1.2 1.106-.169.35-.175.381-.194 1.619-.019 1.056-.006 1.288.075 1.45.213.406-.394.381 9.006.381 7.45 0 8.563-.012 8.719-.094.356-.188.375-.256.375-1.606 0-1.525-.063-1.738-.65-2.337-.55-.556-.837-.65-2.006-.65h-.906v-1.806c0-2.194.031-2.113-.825-2.419-.675-.238-1.081-.5-1.488-.944-.556-.606-.875-1.4-.875-2.175v-.444l.3-.144c1.781-.863 3.425-2.725 4.606-5.213.3-.631.363-.713.606-.85 1.331-.738 2.719-2.012 3.781-3.494 1.119-1.556 2.094-4.213 2.006-5.463-.075-1-.819-1.825-1.85-2.044-.181-.038-.863-.069-1.512-.069h-1.188v-.475c0-.262-.031-.587-.075-.719-.094-.319-.431-.713-.762-.887L24.03.027 16.092.014C11.729.008 8.086.027 7.998.051zm15.688 3.431c0 2.225-.069 3.569-.256 4.856-.506 3.537-1.813 6.544-3.65 8.375-.9.9-1.725 1.413-2.7 1.656-.581.15-1.5.163-2.069.031-2.912-.688-5.469-4.438-6.325-9.281-.269-1.556-.319-2.213-.356-4.956l-.037-2.669h15.394v1.987zM6.894 5.575c.025 1.325.069 2.075.162 2.706.119.844.381 2.213.506 2.65.031.119.05.231.031.244-.063.063-1.656-1.619-2.013-2.131C4.855 8.019 4.218 6.6 3.924 5.382c-.212-.912-.15-1.244.281-1.506.181-.112.319-.125 1.425-.125h1.225l.037 1.825zM27.75 3.844c.456.237.538.638.319 1.563a10.898 10.898 0 0 1-2.119 4.238c-.337.412-1.506 1.569-1.55 1.525-.012-.012.006-.119.038-.238.125-.438.387-1.806.506-2.65.094-.631.137-1.381.163-2.706l.038-1.825h1.212c.95 0 1.25.019 1.394.094zM16.9 20.381c.069.775.462 1.762.944 2.394.125.163.212.313.2.325s-.931.019-2.038.012l-2.019-.019.219-.281c.525-.688.894-1.606.956-2.387l.044-.456h1.656l.038.413zm3.163 5.588v1.344H12v-2.688h8.063v1.344zm3.187 2.894c.325.163.438.438.438 1.087v.55H8.363l.025-.613c.025-.694.113-.9.444-1.044.169-.075 1.387-.087 7.2-.094 6.544 0 7.012.006 7.219.113z"/>
      <path d="M15.688 4.419c-.188.1-.294.256-.787 1.237l-.575 1.125-1.144.162c-.631.094-1.231.206-1.325.25-.225.106-.356.356-.356.688 0 .256.025.294.9 1.175l.906.912-.188 1.063c-.238 1.394-.238 1.488.031 1.756.35.35.55.313 1.8-.338l1.05-.544 1.056.544c1.25.65 1.444.688 1.794.338.269-.269.269-.363.031-1.756l-.188-1.063.906-.912c.875-.881.9-.919.9-1.175 0-.369-.137-.6-.419-.706-.131-.05-.725-.162-1.325-.244l-1.081-.144-.556-1.112c-.331-.662-.613-1.15-.7-1.206a.704.704 0 0 0-.731-.05zm.637 2.987c.35.694.406.738 1.225.844.313.044.575.094.575.113s-.212.25-.469.519c-.469.475-.469.481-.462.813 0 .188.038.537.081.787l.081.45-.6-.306c-.325-.175-.663-.313-.75-.313-.081 0-.431.144-.769.319-.494.25-.619.294-.588.2.075-.269.162-.875.162-1.162 0-.3-.012-.325-.469-.787-.256-.269-.469-.5-.469-.519s.262-.069.581-.113c.813-.106.869-.15 1.219-.844.156-.325.306-.594.325-.594s.169.269.325.594z"/>
    </symbol>
    <symbol id="ui" viewBox="0 0 32 32">
      <path d="M9.5.1c-.744.2-1.356.725-1.713 1.462l-.194.406-.037 5.463-.513.269a7.014 7.014 0 0 0-3.681 5.106l-.075.506h-1.6v1.056l1.587.037.081.506c.15.988.575 2.056 1.15 2.919.375.55 1.25 1.413 1.831 1.788.906.587 1.669.894 2.694 1.069l.625.106.019.788.019.794h1.056V20.75h.206c.325-.006 1.231-.225 1.769-.431 1.175-.456 2.431-1.444 3.15-2.475.581-.844 1.05-2.006 1.156-2.875.081-.656-.012-.594.913-.594h.813l-.019-.519-.019-.512-.794-.019c-.906-.019-.8.069-.925-.713-.319-2.013-1.781-3.963-3.688-4.919a7.174 7.174 0 0 0-2.375-.706c-.156-.019-.156-.019-.188-.831l-.031-.813-1.031-.037v.813c0 .925.063.831-.588.912a2.707 2.707 0 0 0-.387.075c-.075.025-.088-.213-.088-1.412V4.25h8.5V3.187h-8.5v-.456c0-.55.194-1 .55-1.294.469-.387.256-.381 7.019-.363l6.156.019.331.175.331.169.288-.319c.163-.181.313-.356.337-.4.063-.1-.313-.362-.769-.55L22.529.03 16.185.017c-5.438-.013-6.394 0-6.688.081zm.188 8.463v.5h1.063v-1h.194c.6 0 1.931.512 2.638 1.025.45.319 1.181 1.063 1.475 1.494.438.644.813 1.606.931 2.369l.056.363h-1.044v1.063h1v.225c0 .381-.244 1.219-.531 1.806a6.17 6.17 0 0 1-1.2 1.675l-.313.3-.037-.506c-.1-1.288-.781-2.344-1.969-3.037-.012-.006.081-.119.206-.25.306-.331.588-.925.675-1.419.131-.769-.137-1.588-.713-2.2-.387-.412-.731-.625-1.219-.75-1.281-.331-2.544.262-3.106 1.456-.162.35-.2.512-.219.981-.037.813.169 1.387.7 1.956.162.169.175.213.1.262-.419.256-.862.644-1.106.963-.487.644-.688 1.187-.806 2.175-.019.169-.056.3-.088.3-.081 0-.731-.725-.994-1.113-.494-.738-.881-1.706-.975-2.469l-.044-.356h1.013v-1.063H4.362l.044-.3c.075-.563.231-1.044.506-1.631.756-1.613 2.119-2.737 3.856-3.194.25-.063.556-.119.688-.119l.231-.006v.5zm.993 2.724c.706.206 1.2.981 1.1 1.713-.063.438-.375.925-.738 1.15s-.887.281-1.344.156c-.381-.106-.887-.6-1-.969-.213-.725.019-1.444.575-1.825.5-.331.856-.394 1.406-.225zm.188 4.282c.938.213 1.725 1.044 1.938 2.044.037.181.069.594.069.919v.587l-.512.194c-.506.2-1.2.369-1.469.375-.137 0-.144-.025-.144-.5v-.5H9.688v1h-.175c-.262 0-1.113-.225-1.563-.413l-.4-.169.025-.85c.019-.806.031-.869.219-1.262.244-.5.806-1.056 1.294-1.281.544-.25 1.113-.294 1.781-.144z"/>
      <path d="m.244 2.306-.188.188.019 2.35L.094 7.2l.15.119c.137.112.281.119 3.031.119h2.894l.131-.144c.138-.144.138-.169.138-2.494 0-2.219-.006-2.356-.119-2.494l-.119-.15-5.769-.038-.188.188zm5.131 2.475v1.594h-4.25V3.187h4.25v1.594z"/>
      <path d="M2.188 4.781v.531h2.125V4.249H2.188v.531zM18.394 2.275l-.175.15-.019 3.344c-.012 2.156.006 3.4.05 3.506.137.363-.056.356 6.475.338l5.975-.019.3-.35V2.488l-.363-.362H18.568l-.175.15zm11.531 3.581-.019 2.675H19.281l-.019-2.675-.012-2.669h10.688l-.012 2.669z"/>
      <path d="M20.356 4.294c-.025.019-.044.263-.044.531v.487h2.125V4.249h-1.019c-.563 0-1.044.019-1.063.044zM23.563 4.781v.531h5.313V4.249h-5.313v.531zM20.356 6.419c-.025.019-.044.263-.044.531v.487h8.563V6.374h-4.238c-2.331 0-4.262.019-4.281.044zM23.569 13.387l.006 2.706-1.456 1.288c-1.431 1.269-1.462 1.294-1.788 1.331-1.113.131-2.256.962-2.775 2.006-.319.65-.431 1.194-.431 2.156-.006.919-.087 1.175-.5 1.506-.488.387-.563.481-.563.675 0 .106.063.262.15.363l.15.175h2.306l2.3-.006.488-.169c1.344-.469 2.238-1.481 2.531-2.869l.113-.519 3.831-4.344c2.106-2.387 3.881-4.444 3.95-4.575.144-.281.163-1.131.038-1.444-.125-.294-.394-.588-.712-.775-.225-.131-.394-.169-.762-.194-.431-.025-.506-.006-.806.156-.181.094-1.363 1.094-2.656 2.231l-2.325 2.063-.019-2.231-.012-2.231h-1.063l.006 2.7zm7.212-1.487c.175.175.25.412.194.619-.031.131-7.344 8.488-7.462 8.531-.081.025-1.844-1.781-1.8-1.85.038-.063 7.588-6.744 8.181-7.25.313-.256.663-.275.887-.05zm-8.944 9.031 1.175 1.175-.1.4c-.275 1.075-1.137 1.837-2.256 1.994-.512.069-2.719.081-2.719.012.006-.025.056-.2.125-.387.094-.262.119-.519.125-1.1 0-.875.069-1.294.275-1.75.169-.375.637-.906.988-1.125.25-.163.887-.394 1.081-.4.081 0 .544.419 1.306 1.181zM7.563 22.656V24H.425l-.362.363v2.262c0 2.369.019 2.55.281 2.65.138.05 12.113.05 12.25 0 .262-.1.281-.281.281-2.65v-2.262L12.512 24H8.625l-.012-1.331-.019-1.325-1.031-.038v1.35zm4.25 4v1.594H1.125v-3.188h10.688v1.594z"/>
      <path d="M2.188 26.656v.531h2.688v-1.063H2.188v.531zM5.938 26.656v.531h4.813v-1.063H5.938v.531zM23.55 25.606l-.019 1.05-9.594.031v1.063h9.637l-.025.95c-.031 1.119-.144 1.469-.569 1.837-.488.413-.238.4-6.919.4-6.875 0-6.488.025-6.994-.494l-.287-.294-.419.244c-.238.131-.425.275-.425.319 0 .137.55.694.881.894.688.412.438.4 7.406.381l6.306-.019.363-.15c.7-.281 1.25-.85 1.55-1.619.144-.35.144-.419.169-3l.025-2.637h-1.075l-.012 1.044z"/>
      <path d="M15.563 29.344v.531h1.063v-1.063h-1.063v.531z"/>
    </symbol>
    <symbol id="web-design" viewBox="0 0 32 32">
      <path d="M2 .087A2.777 2.777 0 0 0 .087 2.025c-.125.475-.125 27.475 0 27.95.263.988 1.094 1.775 2.069 1.962.275.05 4.15.063 14.531.05l14.156-.019.25-.137c.294-.156.594-.462.756-.769.113-.212.119-.613.137-10.688.012-11.525.037-10.775-.369-11.269a1.83 1.83 0 0 0-.45-.375l-.262-.137-11.688-.063-.031-3.25c-.031-3.156-.038-3.256-.169-3.581-.275-.681-.844-1.238-1.581-1.55-.269-.113-.544-.119-7.719-.131-5.825-.006-7.5.006-7.719.069zm15.225 1.144c.313.169.606.469.756.762.094.181.119.419.131 1.238l.019 1.019H1.05l.025-1.019c.019-.837.038-1.05.137-1.231.219-.419.606-.75 1.038-.881.087-.025 3.431-.044 7.437-.038l7.281.012.256.137zm.9 5.707v1.625h-1.544l-.038-.431c-.044-.519-.15-.75-.462-.987l-.225-.175-6.181-.019c-6.063-.013-6.181-.013-6.419.112a1.264 1.264 0 0 0-.394.325l-.144.206-.019 3.037-.019 3.031.144.213c.081.113.225.269.319.338.175.131.237.131 4.375.162l4.2.031v2.125l-.731.031c-.806.038-.944.094-1.225.5l-.144.212.019 3.031.019 3.038.15.212c.238.331.556.444 1.306.444h.637l-.012 1.325-.019 1.331-10.656.031V5.311h17.063v1.625zm-2.687 1.343v.281h-1.25c-1.125 0-1.275.012-1.519.125-.369.175-.65.475-.813.881-.106.262-.262.456-.7.869-.313.287-.713.669-.887.838l-.331.313-.988-.981c-.938-.931-1-.981-1.231-.981-.237 0-.306.063-2.106 1.856l-1.862 1.863V8.001h11.688v.281zm15.318 1.463.15.119.019 10.356.012 10.35-.181.188-.181.181h-8.669c-8.95 0-8.825.006-9.012-.244-.063-.075-.075-2.406-.081-10.431V9.932l.156-.15.15-.156h8.744c8.519 0 8.75 0 8.894.119zM8.969 12.125l1.188 1.188H5.282l1.188-1.188c.65-.656 1.213-1.188 1.25-1.188s.6.531 1.25 1.188zm2.75 1.175c-.019.019-.262-.188-.537-.463l-.5-.494 1.037-.963.019.944c.006.519 0 .956-.019.975zm.031 6.981v2.656h-1.063v-5.313h1.063v2.656zm0 8v.531H9.262c-2.7 0-2.694 0-2.831.35-.081.219.075.569.287.65.1.038 1.138.063 2.6.063h2.431v.387c0 .219.019.456.037.538l.037.137-4.8-.012c-4.794-.019-4.806-.019-5.056-.156A1.976 1.976 0 0 1 1.211 30c-.1-.181-.119-.394-.137-1.238l-.025-1.012h10.7v.531z"/>
      <path d="M7.119 2.306c-.231.237-.244.512-.025.725.131.138.206.156.612.156.369 0 .5-.025.619-.125.2-.15.244-.369.137-.619-.1-.237-.294-.319-.781-.319-.338 0-.4.019-.563.181zM9.906 2.2c-.325.175-.387.575-.125.831.15.15.169.156 1.156.156s1.006-.006 1.156-.156c.262-.256.194-.656-.137-.831-.175-.1-1.875-.1-2.05 0zM2.825 16.706c-.269.281-.131.738.256.875.188.069.512-.106.6-.325.1-.225.006-.531-.188-.631-.206-.113-.525-.075-.669.081zM4.944 16.725c-.175.219-.162.481.019.694l.15.175 1.369.019c1.5.025 1.719 0 1.9-.181.175-.175.162-.556-.025-.731-.144-.131-.188-.137-1.713-.137H5.069l-.125.163zM2.844 18.844c-.281.275-.156.756.219.875.325.1.744-.3.663-.631a.527.527 0 0 0-.881-.244zM4.969 18.844c-.231.225-.213.538.037.744l.194.163h1.431c1.756 0 1.869-.038 1.869-.587 0-.131-.05-.25-.144-.337-.144-.131-.188-.137-1.694-.137H5.118l-.15.156zM2.844 20.969c-.256.25-.206.656.106.819.369.188.763-.044.763-.456 0-.45-.556-.681-.869-.363zM4.969 20.969c-.263.256-.194.656.138.831.169.094 2.875.106 3.112.012.188-.069.338-.375.294-.6-.012-.081-.1-.206-.188-.275-.144-.119-.256-.125-1.681-.125H5.119l-.15.156zM2.844 23.094a.511.511 0 0 0 .288.881c.506.081.8-.556.406-.887-.225-.194-.5-.194-.694.006zM4.969 23.094a.511.511 0 0 0-.156.337c0 .531.119.569 1.906.569h1.475l.15-.156c.238-.231.231-.55-.006-.769-.156-.137-.188-.137-1.688-.137H5.119l-.15.156zM15.106 12.338c-.294.106-.381.181-.556.469-.137.213-.144.3-.162 1.625-.025 1.531-.006 1.763.181 1.95.175.175.556.163.731-.025.131-.137.137-.206.15-1.575l.019-1.438 1.431-.019c1.256-.012 1.45-.031 1.556-.125.294-.262.25-.681-.087-.856-.244-.131-2.906-.131-3.262-.006z"/>
      <path d="M20.063 12.325c-.119.063-1.575 2.119-1.938 2.738-.044.075-.131.019-.425-.269-.331-.306-.413-.356-.625-.356-.306 0-.512.2-.512.506 0 .188.075.287.675.881 1.038 1.031.931 1.081 2.413-1.15 1.05-1.569 1.169-1.781 1.137-1.95-.075-.356-.425-.55-.725-.4zM22.637 12.912a.71.71 0 0 0-.206.25c-.081.219.075.569.288.65.244.094 4 .081 4.175-.012.331-.175.4-.575.137-.831l-.15-.156h-2.05c-1.781 0-2.075.012-2.194.1zM28.406 13.012c-.2.238-.181.506.069.719.131.119.231.144.594.144.406 0 .456-.012.625-.181.194-.194.225-.369.106-.588-.125-.244-.25-.287-.75-.294-.462 0-.481.006-.644.2zM22.587 15.088a.5.5 0 0 0 .006.769c.137.119.238.144.6.144.406 0 .456-.012.625-.181.194-.194.225-.344.113-.588-.1-.213-.306-.294-.775-.294-.331 0-.431.025-.569.15zM25.244 15.119c-.238.238-.238.463.006.7l.188.188 1.288-.019c1.269-.019 1.288-.019 1.406-.169a.552.552 0 0 0-.038-.725c-.15-.156-.156-.156-1.406-.156h-1.262l-.181.181zM15.025 18.244a1.02 1.02 0 0 0-.588.706c-.044.15-.063.806-.05 1.675.019 1.413.019 1.431.169 1.587.2.212.55.225.744.019.131-.137.137-.206.15-1.575l.019-1.438 1.45-.031c1.4-.031 1.456-.038 1.594-.169a.536.536 0 0 0 0-.725c-.137-.131-.181-.137-1.688-.156-1.4-.012-1.569 0-1.8.106z"/>
      <path d="M20.012 18.206c-.075.044-.55.694-1.05 1.444l-.913 1.369-.319-.319c-.181-.169-.387-.344-.469-.381-.3-.156-.7.125-.7.488 0 .206.069.294.675.9.6.6.694.669.894.669.163 0 .262-.05.381-.175.087-.094.644-.9 1.238-1.788.95-1.438 1.069-1.644 1.038-1.813-.044-.231-.3-.475-.494-.475a.846.846 0 0 0-.281.081zM22.581 18.825c-.181.2-.212.331-.131.55.125.363.219.375 2.387.375h1.962l.194-.163c.25-.206.269-.519.038-.744l-.15-.156h-2.087c-2.081 0-2.087 0-2.212.137zM28.45 18.813a.52.52 0 0 0 .113.856c.2.1.8.1 1 0 .337-.169.394-.587.125-.856-.181-.181-1.038-.181-1.238 0zM22.637 20.913c-.219.15-.275.369-.169.625.106.262.288.337.788.337.337 0 .4-.019.563-.181.1-.1.181-.244.181-.319 0-.181-.163-.475-.281-.525-.212-.081-.938-.038-1.081.063zM25.306 20.894c-.288.219-.313.55-.063.8l.181.181h1.2c1.206 0 1.375-.025 1.544-.244.131-.169.094-.494-.075-.663-.15-.156-.156-.156-1.419-.156-.9.006-1.3.025-1.369.081zM15.012 24.106a1.119 1.119 0 0 0-.575.712c-.044.156-.063.794-.05 1.681.019 1.413.019 1.431.169 1.587.188.2.488.212.713.031l.169-.125.012-1.45.019-1.45 1.45-.031c1.4-.031 1.456-.038 1.594-.169a.509.509 0 0 0-.038-.744c-.169-.15-.181-.15-1.712-.15-1.294 0-1.575.019-1.75.106z"/>
      <path d="M20.012 24.081c-.075.044-.55.694-1.05 1.444l-.913 1.369-.35-.35c-.387-.381-.606-.475-.837-.35-.212.113-.294.25-.3.488 0 .194.075.294.675.894s.7.675.894.675c.163 0 .262-.05.381-.175.331-.35 2.3-3.394 2.3-3.55 0-.2-.319-.525-.512-.525a.85.85 0 0 0-.288.081zM22.581 24.7c-.188.212-.212.344-.119.581.144.331.306.356 2.494.331l1.931-.019.15-.175c.181-.212.194-.475.019-.694l-.125-.163h-2.113c-2.106 0-2.113 0-2.238.137zM28.438 24.688c-.413.413-.063.938.637.938.538 0 .856-.294.769-.7-.063-.281-.244-.363-.794-.363-.4 0-.506.019-.613.125zM22.581 26.825c-.188.212-.212.344-.119.575.113.269.369.375.856.337.325-.025.413-.056.538-.2.188-.225.188-.5-.012-.694-.131-.137-.206-.156-.644-.156-.431 0-.506.019-.619.137zM25.25 26.813c-.175.175-.225.431-.119.619.163.288.313.319 1.569.319 1.163 0 1.169 0 1.356-.163.25-.206.269-.519.038-.744-.15-.156-.156-.156-1.438-.156-1.194 0-1.288.006-1.406.125z"/>
    </symbol>
<symbol id="badge" viewBox="0 0 32 32">
<path d="M12.65 0.069c-0.069 0.038-0.525 0.738-1.019 1.556-0.85 1.419-0.9 1.494-1.063 1.462-0.938-0.169-3.344-0.45-3.431-0.406-0.306 0.163-0.325 0.225-0.475 2-0.081 0.938-0.162 1.713-0.175 1.731-0.019 0.013-0.763 0.256-1.65 0.531-1.7 0.525-1.9 0.625-1.9 0.963 0 0.075 0.269 0.831 0.594 1.669 0.325 0.831 0.594 1.55 0.594 1.594 0 0.037-0.563 0.6-1.25 1.244-0.712 0.662-1.269 1.231-1.288 1.313s-0.025 0.213 0 0.294c0.019 0.075 0.587 0.662 1.269 1.294s1.244 1.181 1.256 1.219c0.013 0.044-0.25 0.769-0.581 1.613-0.325 0.844-0.594 1.6-0.594 1.681 0 0.262 0.169 0.413 0.625 0.563 0.244 0.075 0.431 0.156 0.425 0.175-0.013 0.025-0.913 1.494-2 3.262-1.212 1.962-1.988 3.281-1.988 3.375 0 0.2 0.206 0.462 0.394 0.506 0.075 0.025 1.363-0.181 2.856-0.456s2.719-0.488 2.725-0.481c0.006 0.006 0.231 1.094 0.494 2.413s0.506 2.462 0.544 2.538c0.119 0.262 0.481 0.356 0.725 0.181 0.081-0.056 0.987-1.363 2.019-2.906 1.025-1.544 1.881-2.806 1.894-2.806s0.194 0.294 0.406 0.65c0.213 0.356 0.444 0.7 0.512 0.762 0.269 0.244 0.444 0.169 1.981-0.844l1.45-0.956 1.45 0.956c1.5 0.988 1.706 1.075 1.95 0.875 0.056-0.050 0.288-0.394 0.512-0.762 0.225-0.375 0.419-0.681 0.438-0.681 0.012 0 0.869 1.262 1.894 2.806 1.031 1.544 1.938 2.85 2.019 2.906 0.075 0.056 0.188 0.1 0.25 0.1 0.163 0 0.413-0.131 0.462-0.244 0.025-0.056 0.275-1.212 0.55-2.569l0.506-2.469 0.156 0.012c0.087 0.006 1.313 0.119 2.725 0.244s2.644 0.212 2.731 0.188c0.175-0.044 0.356-0.319 0.356-0.531 0-0.069-0.875-1.438-1.944-3.044s-1.956-2.956-1.975-3c-0.019-0.056 0.087-0.113 0.331-0.188 0.413-0.119 0.65-0.325 0.65-0.556 0-0.087-0.269-0.856-0.594-1.7-0.331-0.844-0.594-1.569-0.581-1.606 0.012-0.044 0.575-0.594 1.256-1.225 0.694-0.644 1.25-1.206 1.269-1.294 0.025-0.075 0.019-0.213 0-0.294-0.019-0.088-0.563-0.644-1.288-1.319-0.688-0.644-1.25-1.2-1.25-1.238s0.269-0.75 0.594-1.588c0.325-0.838 0.594-1.594 0.594-1.675 0-0.331-0.194-0.431-1.9-0.969-0.894-0.275-1.637-0.513-1.65-0.531-0.012-0.013-0.094-0.781-0.169-1.712-0.087-0.987-0.181-1.737-0.225-1.806-0.169-0.269-0.281-0.275-1.981-0.044-0.881 0.125-1.669 0.231-1.738 0.25-0.119 0.025-0.25-0.163-1.031-1.462-0.875-1.469-1.006-1.631-1.3-1.631-0.069 0-0.781 0.438-1.6 0.969l-1.475 0.969-0.762-0.512c-1.438-0.969-2.188-1.425-2.319-1.419-0.075 0-0.188 0.031-0.262 0.063zM14.5 2.219c0.762 0.5 1.438 0.906 1.494 0.906 0.112 0 0.956-0.519 2.219-1.369 0.556-0.375 0.688-0.444 0.756-0.369 0.044 0.044 0.431 0.675 0.869 1.406 0.625 1.050 0.825 1.331 0.956 1.375 0.125 0.044 0.625 0 1.756-0.156 0.869-0.119 1.594-0.2 1.613-0.181 0.019 0.013 0.087 0.675 0.156 1.456 0.144 1.725 0.156 1.794 0.294 1.919 0.056 0.050 0.794 0.306 1.637 0.569 0.837 0.262 1.538 0.494 1.55 0.506s-0.231 0.681-0.544 1.481c-0.313 0.8-0.569 1.537-0.569 1.644 0 0.194-0.025 0.169 1.637 1.706l0.794 0.731-0.45 0.438c-0.25 0.238-0.794 0.762-1.219 1.156-0.637 0.6-0.762 0.75-0.762 0.9 0 0.1 0.256 0.844 0.569 1.644 0.313 0.806 0.563 1.475 0.55 1.481-0.012 0.012-0.712 0.231-1.544 0.494-0.837 0.262-1.575 0.519-1.644 0.581-0.15 0.131-0.156 0.194-0.306 1.925-0.069 0.788-0.131 1.444-0.15 1.456-0.012 0.012-0.744-0.075-1.631-0.2-1.35-0.181-1.631-0.206-1.769-0.144-0.113 0.056-0.419 0.512-0.988 1.456-0.456 0.756-0.856 1.369-0.887 1.363s-0.663-0.406-1.394-0.887c-0.788-0.519-1.4-0.881-1.488-0.881-0.094 0-0.694 0.356-1.494 0.875-0.731 0.481-1.363 0.887-1.394 0.894-0.037 0.006-0.438-0.606-0.894-1.363-0.581-0.969-0.875-1.4-0.994-1.456-0.137-0.069-0.4-0.044-1.762 0.15-0.881 0.119-1.619 0.212-1.631 0.194-0.019-0.012-0.088-0.669-0.15-1.456-0.15-1.738-0.162-1.794-0.306-1.925-0.069-0.063-0.806-0.319-1.644-0.581-0.831-0.262-1.531-0.481-1.544-0.494-0.006-0.006 0.237-0.681 0.55-1.488s0.569-1.55 0.569-1.644c0-0.144-0.144-0.313-0.794-0.925-0.438-0.412-0.987-0.931-1.219-1.156l-0.419-0.406 0.731-0.669c1.625-1.494 1.7-1.569 1.7-1.775 0-0.1-0.256-0.844-0.569-1.644-0.306-0.8-0.556-1.463-0.544-1.475s0.706-0.238 1.55-0.5c0.844-0.269 1.587-0.531 1.65-0.594 0.106-0.1 0.138-0.313 0.237-1.419 0.181-2.094 0.156-1.956 0.35-1.95 0.094 0 0.819 0.094 1.606 0.206 1.181 0.169 1.469 0.194 1.625 0.131 0.15-0.056 0.344-0.331 1.019-1.456 0.456-0.762 0.844-1.387 0.856-1.387s0.644 0.406 1.406 0.906zM5.844 21.1c0.313 0.094 0.588 0.188 0.619 0.212 0.025 0.031 0.119 0.819 0.2 1.756 0.138 1.55 0.162 1.719 0.287 1.85 0.181 0.194 0.325 0.188 2.206-0.075 0.856-0.119 1.575-0.2 1.594-0.169 0.025 0.025 0.1 0.144 0.169 0.262l0.131 0.219-1.65 2.462c-0.944 1.419-1.656 2.431-1.675 2.375-0.019-0.050-0.213-1-0.438-2.119-0.444-2.231-0.45-2.25-0.894-2.25-0.119 0-1.219 0.181-2.438 0.406s-2.237 0.406-2.263 0.394c-0.038-0.012 1.431-2.438 3.169-5.231 0.144-0.238 0.231-0.319 0.313-0.294 0.056 0.012 0.362 0.106 0.669 0.2zM28.675 23.438c1.606 2.425 1.694 2.563 1.531 2.563-0.1 0-1.1-0.087-2.231-0.188-1.131-0.106-2.175-0.188-2.325-0.188-0.494 0-0.488-0.019-0.95 2.3-0.231 1.137-0.438 2.075-0.456 2.075-0.050 0-3.244-4.794-3.244-4.869 0-0.056 0.244-0.506 0.275-0.506 0.006 0 0.712 0.1 1.569 0.219 1.887 0.262 2.025 0.269 2.212 0.069 0.125-0.131 0.15-0.275 0.256-1.606 0.069-0.806 0.137-1.581 0.156-1.725l0.038-0.269 0.669-0.212c0.369-0.119 0.7-0.219 0.731-0.219 0.038 0 0.831 1.15 1.769 2.556z"></path>
<path d="M15.65 4.956l-0.181 0.156-0.031 1.462-0.031 1.456-0.9 1.762-0.831 0.669c-0.456 0.363-0.85 0.662-0.875 0.662-0.031 0-0.050-0.037-0.050-0.081 0-0.050-0.063-0.144-0.144-0.219-0.144-0.137-0.175-0.137-2.225-0.137h-2.075l-0.15 0.156-0.156 0.15v8.375l0.3 0.35 2.025 0.019c2.219 0.012 2.262 0.006 2.419-0.35l0.094-0.2h4.156c4.606 0 4.369 0.019 4.875-0.413 0.438-0.369 0.644-1.206 0.419-1.738-0.087-0.206-0.081-0.219 0.131-0.419 0.456-0.438 0.619-1.050 0.431-1.619l-0.106-0.319 0.188-0.156c0.294-0.244 0.506-0.738 0.506-1.162 0-0.2-0.038-0.463-0.087-0.575-0.087-0.206-0.081-0.219 0.131-0.419 0.813-0.781 0.625-2.088-0.369-2.581l-0.325-0.162h-4.1v-1.144c0-1.275-0.081-1.8-0.35-2.294-0.394-0.719-1.288-1.3-2.081-1.362-0.381-0.025-0.438-0.013-0.606 0.131zM16.881 6.144c0.313 0.213 0.6 0.625 0.675 0.981 0.038 0.181 0.069 0.956 0.069 1.775v1.456l0.325 0.3 2.375 0.031c2.281 0.031 2.375 0.037 2.462 0.156 0.15 0.2 0.175 0.419 0.081 0.588-0.163 0.281-0.319 0.319-1.506 0.319h-1.113v1.063h0.906c0.887 0 0.919 0.006 1.063 0.156 0.094 0.094 0.156 0.225 0.156 0.338 0 0.512-0.156 0.569-1.531 0.569h-1.094v1.063h1.762l0.181 0.181c0.106 0.113 0.181 0.25 0.181 0.35s-0.075 0.238-0.181 0.35l-0.181 0.181h-2.325v1.063h0.844c1.1 0 1.281 0.081 1.281 0.569 0 0.113-0.063 0.244-0.156 0.337l-0.15 0.156h-8.194v-5.613l1.269-1.012 1.262-1.012 0.594-1.162 0.594-1.169 0.019-1.081c0.012-0.588 0.044-1.075 0.069-1.075 0.031 0 0.144 0.063 0.262 0.144zM11.738 15.2l-0.019 3.456-1.325 0.019-1.331 0.012v-6.938h2.688l-0.012 3.45z"></path>
</symbol>
<symbol id="bill" viewBox="0 0 32 32">
<path d="M1.975 0.069c-0.706 0.169-1.4 0.756-1.744 1.481l-0.2 0.419-0.019 2.638-0.019 2.644h4.131v3.825l-1.075 1.375c-1.25 1.588-1.406 1.813-1.488 2.113-0.031 0.119-0.156 1.012-0.281 1.975l-0.219 1.762v2.644c0.006 2.619 0.006 2.669 0.212 4.256l0.2 1.613h-1.475v5.187h7.25v-2.563h9.587c6.156 0 9.706-0.025 9.919-0.063 0.8-0.15 1.575-0.744 1.919-1.481 0.169-0.363 0.169-0.369 0.188-2.006l0.019-1.637h-4.131v-2.694c0-2.531 0.006-2.688 0.113-2.656 0.6 0.188 1.906 0.225 2.625 0.075 0.913-0.2 1.894-0.681 2.575-1.281l0.281-0.25-0.344-0.344c-0.188-0.194-0.369-0.35-0.406-0.35-0.044 0-0.137 0.069-0.219 0.156-0.212 0.231-0.863 0.631-1.288 0.806-1.944 0.794-4.256 0.15-5.494-1.525-1.044-1.419-1.194-3.363-0.369-4.938 1.119-2.15 3.788-3.056 6.012-2.056 1.163 0.519 2.063 1.531 2.488 2.775 0.137 0.412 0.175 0.644 0.2 1.281 0.031 0.931-0.056 1.394-0.425 2.175-0.137 0.287-0.238 0.544-0.219 0.569 0.012 0.025 0.2 0.156 0.413 0.287 0.444 0.269 0.387 0.306 0.75-0.45 0.319-0.669 0.494-1.338 0.538-2.113 0.063-1.088-0.219-2.231-0.781-3.188-0.344-0.581-1.231-1.512-1.794-1.875-1.169-0.763-2.719-1.069-4.075-0.813-0.269 0.050-0.506 0.094-0.531 0.094s-0.056-1.356-0.063-3.019l-0.019-3.013-0.206-0.419c-0.356-0.719-0.925-1.2-1.669-1.387-0.325-0.087-1.531-0.1-10.5-0.094-5.85 0.006-10.225 0.031-10.369 0.063zM3.219 1.181c0.319 0.144 0.737 0.613 0.831 0.931 0.050 0.163 0.075 0.875 0.075 2.163v1.912h-3.063v-2c0-1.994 0-2.006 0.15-2.3 0.175-0.337 0.344-0.506 0.694-0.688 0.331-0.175 0.962-0.181 1.313-0.019zM22.8 1.163c0.294 0.119 0.606 0.419 0.781 0.744 0.137 0.244 0.137 0.306 0.156 3.35l0.019 3.106-0.3 0.169c-1.306 0.756-2.238 2.012-2.65 3.581-0.2 0.731-0.188 1.906 0.025 2.706 0.175 0.669 0.488 1.337 0.887 1.906 0.363 0.5 1.169 1.256 1.644 1.525l0.381 0.219 0.006 2.887v2.894h-15.5v1.45c0 1.331-0.012 1.481-0.131 1.738-0.144 0.319-0.381 0.594-0.631 0.725-0.094 0.050-0.181 0.087-0.2 0.087s-0.044-0.319-0.050-0.706l-0.019-0.7-1.031-0.038v-2.337l1.913-1.906c2.069-2.063 2.213-2.244 2.213-2.837 0-0.444-0.113-0.756-0.394-1.075-0.363-0.413-0.669-0.55-1.2-0.55-0.306-0.006-0.512 0.031-0.688 0.119-0.138 0.063-0.688 0.55-1.231 1.081l-0.981 0.969-0.319-0.644-0.313-0.644v-1.794c0-0.988 0.019-1.887 0.037-2 0.025-0.113 0.531-0.887 1.213-1.844 1.275-1.794 1.362-1.969 1.294-2.637-0.063-0.594-0.513-1.162-1.038-1.325-0.487-0.144-1.094-0.050-1.394 0.225-0.106 0.094-0.112-0.044-0.112-3.456 0-1.956-0.025-3.719-0.063-3.919-0.044-0.3-0.169-0.619-0.425-1.125-0.013-0.025 4-0.044 8.919-0.044 7.944 0 8.975 0.012 9.181 0.1zM6.431 10.406c0.213 0.106 0.256 0.206 0.256 0.55 0 0.244-0.094 0.394-1.075 1.762-1.125 1.575-1.313 1.887-1.419 2.344-0.088 0.387-0.088 3.656 0 4.075 0.037 0.181 0.2 0.581 0.35 0.887 0.244 0.481 0.269 0.563 0.181 0.613-0.081 0.044-0.1 0.163-0.1 0.55v0.5h1.281l1.281-1.281c1.181-1.181 1.3-1.281 1.5-1.281 0.419 0 0.688 0.337 0.563 0.712-0.037 0.125-0.756 0.887-2.063 2.194l-2 2v2.781h-1.344c-1.031 0-1.344-0.019-1.344-0.081 0-0.038-0.1-0.85-0.219-1.794-0.212-1.681-0.219-1.769-0.219-4 0-2.25 0-2.306 0.225-4.125 0.125-1.012 0.263-1.931 0.306-2.031 0.069-0.156 2.85-3.781 3.306-4.3 0.169-0.194 0.281-0.206 0.531-0.075zM27.875 26.169c0 0.475-0.031 0.969-0.063 1.094-0.106 0.369-0.431 0.75-0.806 0.944l-0.344 0.169h-17.85l0.181-0.363c0.244-0.481 0.319-0.931 0.319-1.9v-0.8h18.563v0.856zM6.188 29.406v1.531h-5.125v-3.063h5.125v1.531z"></path>
<path d="M6.688 5.406v3.344h15.5v-6.688h-15.5v3.344zM21.188 5.438v2.313h-13.438v-4.625h13.438v2.313z"></path>
<path d="M10.313 12.375v0.5h3.125v-1h-3.125v0.5z"></path>
<path d="M15.5 12.375v0.5h3.063v-1h-3.063v0.5z"></path>
<path d="M10.313 14.438v0.5h3.125v-1h-3.125v0.5z"></path>
<path d="M15.5 14.438v0.5h3.063v-1h-3.063v0.5z"></path>
<path d="M9.313 16.531v0.531l10.281-0.031 0.019-0.519 0.019-0.512h-10.319v0.531z"></path>
<path d="M13.938 20.656v0.531h8.25v-1.063h-8.25v0.531z"></path>
<path d="M13.938 22.719v0.531l1.55-0.012 1.544-0.019v-1l-1.544-0.019-1.55-0.012v0.531z"></path>
<path d="M19.125 22.719v0.531h3.063v-1.063h-3.063v0.531z"></path>
<path d="M25.813 10.375v0.556l-0.219 0.106c-0.262 0.125-0.575 0.463-0.706 0.769-0.137 0.325-0.119 0.925 0.038 1.231 0.262 0.512 0.7 0.813 1.313 0.9 0.4 0.050 0.575 0.213 0.575 0.525 0 0.444-0.6 0.656-0.869 0.313-0.075-0.094-0.131-0.206-0.131-0.256 0-0.069-0.106-0.081-0.512-0.069l-0.519 0.019 0.019 0.219c0.012 0.119 0.075 0.319 0.137 0.438 0.131 0.256 0.544 0.656 0.744 0.719 0.119 0.037 0.131 0.081 0.131 0.631v0.587h1v-1.113l0.281-0.162c0.894-0.525 1.031-1.731 0.269-2.456-0.25-0.244-0.531-0.363-0.975-0.425-0.375-0.050-0.575-0.238-0.575-0.544 0-0.238 0.25-0.488 0.488-0.488 0.225 0 0.512 0.213 0.512 0.381 0 0.106 0.050 0.119 0.538 0.119h0.538l-0.044-0.231c-0.025-0.125-0.094-0.331-0.156-0.456-0.131-0.256-0.544-0.65-0.744-0.719-0.119-0.037-0.131-0.088-0.131-0.6v-0.556h-1v0.563z"></path>
<path d="M22.731 12.912c-0.025 0.025-0.044 0.269-0.044 0.537v0.488h1.069l-0.019-0.519-0.019-0.512-0.469-0.019c-0.262-0.006-0.494 0-0.519 0.025z"></path>
<path d="M28.919 12.919c-0.025 0.019-0.044 0.262-0.044 0.531v0.488h1.063v-1.063h-0.488c-0.269 0-0.512 0.019-0.531 0.044z"></path>
</symbol>
<symbol id="network" viewBox="0 0 32 32">
<path d="M27.938 0.044c-0.944 0.156-1.969 0.869-2.45 1.706-0.538 0.925-0.606 2.131-0.175 3.106l0.131 0.294-5.712 5.713-0.363-0.238c-0.519-0.338-1.094-0.55-1.794-0.669-0.506-0.088-0.7-0.088-1.175-0.031-0.725 0.094-1.369 0.313-1.938 0.656l-0.45 0.275-4.438-4.45 0.131-0.281c0.1-0.219 0.131-0.406 0.131-0.875 0.006-0.525-0.012-0.638-0.175-0.981-0.213-0.456-0.706-0.956-1.144-1.163-0.25-0.112-0.412-0.138-0.956-0.138-0.594 0-0.688 0.019-1 0.175-1.556 0.8-1.769 2.887-0.4 3.938 0.638 0.487 1.538 0.606 2.263 0.294l0.338-0.144 4.444 4.444-0.225 0.344c-0.5 0.75-0.731 1.556-0.731 2.531 0 0.969 0.244 1.806 0.75 2.556l0.2 0.288-7.356 7.35-0.406-0.269c-0.569-0.381-1.050-0.544-1.7-0.581-1.087-0.069-1.956 0.256-2.7 1.006-1.381 1.381-1.381 3.5-0.006 4.887 0.694 0.694 1.475 1.025 2.438 1.025 2.494 0 4.181-2.475 3.25-4.775l-0.156-0.381 3.706-3.7c2.031-2.038 3.719-3.706 3.744-3.706s0.206 0.1 0.4 0.225c0.45 0.288 0.988 0.506 1.488 0.606l0.381 0.081 0.019 2.944 0.012 2.95-0.356 0.1c-0.619 0.181-1.088 0.462-1.556 0.931-1.819 1.819-1.088 4.831 1.387 5.738 0.5 0.181 1.581 0.2 2.088 0.025 1.438-0.488 2.356-1.65 2.475-3.131 0.131-1.575-0.962-3.1-2.556-3.563l-0.356-0.1 0.012-2.95 0.019-2.944 0.381-0.081c0.5-0.1 1.1-0.344 1.506-0.613 0.181-0.119 0.35-0.219 0.375-0.219 0.031 0 1.044 0.994 2.262 2.212l2.206 2.206-0.15 0.275c-0.125 0.238-0.144 0.363-0.144 0.9 0 0.519 0.025 0.675 0.144 0.931 0.313 0.681 0.863 1.144 1.575 1.325 1.056 0.269 2.181-0.269 2.669-1.275 0.15-0.313 0.169-0.431 0.175-0.95 0-0.525-0.019-0.637-0.181-0.988-0.238-0.506-0.769-1.012-1.269-1.2s-1.169-0.188-1.669 0l-0.369 0.137-4.438-4.438 0.2-0.288c0.688-0.994 0.944-2.481 0.637-3.675-0.125-0.475-0.469-1.231-0.712-1.563l-0.131-0.181 5.606-5.606 0.387 0.269c1.469 1.006 3.331 0.794 4.531-0.506 0.431-0.469 0.656-0.881 0.813-1.5 0.219-0.85 0.144-1.556-0.256-2.381-0.65-1.356-2.2-2.163-3.681-1.913zM29.456 1.363c0.413 0.188 0.925 0.687 1.144 1.119 0.163 0.331 0.181 0.419 0.181 0.987 0 0.581-0.012 0.656-0.2 1.037-0.244 0.494-0.637 0.875-1.131 1.106-0.306 0.144-0.438 0.169-0.95 0.169-0.525-0.006-0.637-0.025-0.969-0.188-0.475-0.231-0.894-0.65-1.125-1.125-0.163-0.331-0.181-0.444-0.188-0.969 0-0.513 0.025-0.644 0.163-0.938 0.281-0.6 0.663-0.962 1.3-1.231 0.3-0.125 0.425-0.144 0.913-0.125 0.4 0.019 0.65 0.063 0.863 0.156zM7.888 4.125c0.712 0.2 1.044 1.025 0.675 1.675-0.425 0.75-1.55 0.775-1.969 0.044-0.2-0.35-0.231-0.55-0.15-0.869 0.088-0.362 0.394-0.706 0.713-0.819 0.306-0.106 0.431-0.112 0.731-0.031zM17.681 11.156c0.856 0.206 1.631 0.762 2.131 1.537 1.038 1.606 0.512 3.85-1.131 4.825-0.6 0.356-1.106 0.494-1.806 0.494-3.113 0-4.656-3.762-2.438-5.944 0.844-0.838 2.087-1.181 3.244-0.912zM26.663 22.806c0.269 0.119 0.538 0.425 0.619 0.688 0.025 0.087 0.044 0.275 0.044 0.425-0.019 0.875-1.063 1.387-1.794 0.887-0.556-0.381-0.669-1.175-0.238-1.688 0.344-0.4 0.894-0.531 1.369-0.313zM4.338 25.194c0.494 0.181 1.031 0.688 1.263 1.194 0.156 0.344 0.181 0.469 0.181 0.956 0 0.738-0.194 1.194-0.725 1.681-0.487 0.45-0.919 0.619-1.587 0.625-0.438 0-0.563-0.025-0.919-0.194-0.513-0.244-0.944-0.656-1.163-1.131-0.15-0.313-0.169-0.438-0.169-0.981 0-0.563 0.019-0.663 0.181-0.994 0.544-1.113 1.775-1.594 2.938-1.156zM17.837 26.394c0.444 0.206 0.938 0.7 1.15 1.156 0.144 0.306 0.169 0.438 0.169 0.95s-0.025 0.644-0.169 0.95c-0.219 0.475-0.594 0.863-1.063 1.119-0.375 0.206-0.425 0.212-1.050 0.212-0.613 0-0.681-0.012-1.031-0.2-0.463-0.238-0.863-0.656-1.081-1.131-0.144-0.306-0.169-0.438-0.169-0.95 0-0.506 0.025-0.644 0.162-0.938 0.294-0.625 0.856-1.113 1.487-1.294 0.438-0.125 1.175-0.063 1.594 0.125z"></path>
</symbol>
<symbol id="prototyping" viewBox="0 0 32 32">
<path d="M21.194 0.656c-1.006 0.281-1.75 1.087-1.944 2.094-0.031 0.181-0.063 0.956-0.063 1.725v1.4h-12.813v-0.769c0-1.175-0.244-1.85-0.906-2.513-0.881-0.881-2.15-1.181-3.306-0.781-1.025 0.35-1.875 1.313-2.094 2.362-0.050 0.237-0.069 3.831-0.069 12.406 0 10.644 0.013 12.125 0.094 12.45 0.275 1.063 1.025 1.9 2.069 2.294l0.369 0.144h13.438c12.944 0 13.45-0.006 13.781-0.119 0.962-0.325 1.712-1.050 2.075-2.012l0.144-0.369 0.019-10.056c0.006-6.694-0.006-10.175-0.050-10.406-0.238-1.287-1.356-2.362-2.669-2.563-0.256-0.037-1.363-0.069-2.569-0.069h-2.125l-0.025-1.581c-0.031-1.438-0.044-1.606-0.169-1.931-0.3-0.769-0.856-1.35-1.55-1.613-0.469-0.175-1.188-0.219-1.637-0.094zM22.35 1.719c0.406 0.119 0.725 0.394 0.925 0.794 0.156 0.306 0.163 0.375 0.163 1.313v0.987h-3.188v-0.862c0-1.019 0.081-1.369 0.413-1.75 0.444-0.519 1.019-0.681 1.688-0.481zM4.088 2.894c0.412 0.194 0.787 0.556 1.019 0.994l0.175 0.331 0.019 9.769 0.013 9.769-0.206-0.156c-1.038-0.794-2.644-0.825-3.706-0.069l-0.306 0.219-0.019-1.919c-0.006-1.063-0.006-5.444 0-9.738l0.019-7.813 0.137-0.294c0.512-1.094 1.788-1.581 2.856-1.094zM23.438 6.406v0.531h-3.188v-0.487c0-0.269 0.019-0.513 0.044-0.531 0.019-0.025 0.738-0.044 1.594-0.044h1.55v0.531zM19.188 8.644v1.713l-2.556 1.825c-1.406 1-2.594 1.869-2.644 1.925-0.063 0.075-0.088 0.569-0.113 2.213l-0.031 2.106-2.637-2.1-2.631-2.106-0.025-2.387-0.019-2.381-0.15-0.162c-0.213-0.225-0.55-0.225-0.763 0l-0.15 0.162v2.575c0 2.2 0.013 2.6 0.094 2.694 0.050 0.063 1.494 1.238 3.206 2.606l3.106 2.488v3.313l0.206 0.212c0.25 0.262 7.369 5.344 7.613 5.438 0.131 0.044 0.231 0.044 0.356 0 0.231-0.087 7.438-5.238 7.656-5.469l0.169-0.181v-4.375c0-2.606-0.025-4.431-0.063-4.525-0.038-0.106-0.9-0.756-2.656-2.006l-2.594-1.856v-3.425h2.113c1.25 0 2.269 0.025 2.488 0.069 0.719 0.131 1.256 0.556 1.581 1.237l0.163 0.35 0.019 9.969c0.012 9.806 0.012 9.975-0.113 10.381-0.2 0.675-0.738 1.188-1.45 1.394-0.3 0.094-1.688 0.1-13.488 0.087l-13.156-0.019-0.394-0.181c-0.556-0.256-0.969-0.725-1.144-1.288-0.119-0.387-0.125-0.556-0.106-1.856l0.019-1.431 0.206-0.413c0.656-1.344 2.438-1.606 3.444-0.519 0.338 0.363 0.506 0.744 0.569 1.275 0.044 0.331 0.088 0.438 0.219 0.55 0.219 0.188 0.494 0.188 0.688-0.012l0.156-0.15v-9.681c0-5.325 0.019-9.7 0.044-9.719 0.019-0.025 2.906-0.044 6.406-0.044h6.363v1.706zM21.325 9.194l0.019 1.194 0.175 0.15c0.212 0.181 0.475 0.194 0.675 0.031 0.144-0.119 0.15-0.15 0.181-1.331l0.031-1.206 1.031-0.037v11.262l-1.031-0.038-0.031-3.613c-0.031-3.525-0.038-3.619-0.156-3.706-0.194-0.144-0.381-0.169-0.569-0.075-0.337 0.156-0.337 0.119-0.337 3.912v3.519l-1.031-0.038-0.019-5.531c-0.006-3.044 0-5.569 0.019-5.613 0.019-0.050 0.188-0.075 0.525-0.075h0.5l0.019 1.194zM19.175 15.806l-0.019 1.362-1.875-1.338c-1.031-0.738-1.875-1.369-1.875-1.4 0-0.037 0.844-0.669 1.875-1.406l1.875-1.338 0.019 1.375c0.006 0.756 0.006 1.988 0 2.744zM26.769 13.25c0.881 0.631 1.606 1.162 1.606 1.181s-0.863 0.65-1.906 1.394l-1.906 1.356v-5.506l0.3 0.213c0.163 0.119 1.019 0.731 1.906 1.363zM17.144 17.044l2.044 1.462v1.319l0.85 2.569c0.462 1.413 0.887 2.644 0.938 2.744 0.106 0.212 0.406 0.406 0.7 0.462 0.331 0.063 0.631-0.031 0.894-0.275 0.238-0.225 0.281-0.331 1.119-2.9l0.875-2.669 0.006-0.644v-0.644l2.069-1.469c1.144-0.806 2.094-1.481 2.125-1.488 0.025-0.012 0.050 1.594 0.050 3.575v3.594l-3.469 2.475-3.462 2.481-0.206-0.144c-0.788-0.55-6.488-4.625-6.6-4.719-0.137-0.119-0.144-0.144-0.125-1.106l0.019-0.981 0.406 0.325c0.331 0.269 0.444 0.331 0.644 0.331 0.325 0 0.494-0.2 0.469-0.556-0.019-0.244-0.050-0.281-0.781-0.875l-0.769-0.619v-1.9c0-1.506 0.019-1.894 0.081-1.856 0.037 0.025 0.994 0.706 2.125 1.506zM23.225 20.406c-0.019 0.056-0.319 0.975-0.669 2.050s-0.65 1.975-0.669 2.006c-0.025 0.044-1.381-3.975-1.387-4.106 0-0.025 0.619-0.044 1.381-0.044 1.219 0 1.375 0.012 1.344 0.094z"></path>
<path d="M9.762 9.269c-0.194 0.206-0.181 0.544 0.025 0.738 0.137 0.131 0.231 0.15 0.731 0.175 0.706 0.025 1.006-0.056 1.144-0.313 0.113-0.225 0.075-0.444-0.1-0.619-0.113-0.113-0.213-0.125-0.894-0.125-0.725 0-0.781 0.006-0.906 0.144z"></path>
<path d="M12.944 9.287c-0.175 0.219-0.162 0.481 0.019 0.694l0.15 0.175h3.65l0.15-0.175c0.194-0.231 0.194-0.506-0.006-0.7l-0.15-0.156h-3.688l-0.125 0.162z"></path>
<path d="M9.787 11.381c-0.119 0.094-0.162 0.188-0.162 0.338 0 0.575 0.075 0.594 2.106 0.594 1.213 0 1.719-0.025 1.831-0.081 0.338-0.169 0.394-0.588 0.125-0.856-0.119-0.119-0.219-0.125-1.931-0.125-1.731 0-1.806 0.006-1.969 0.131z"></path>
</symbol>
<symbol id="speed" viewBox="0 0 32 32">
<path d="M14.125 1.406c-3.588 0.431-6.831 2.013-9.394 4.556-4.119 4.1-5.681 9.994-4.144 15.606 0.375 1.356 0.919 2.631 1.681 3.913l0.375 0.644h2.013l1.313-1.15c0.725-0.631 1.313-1.181 1.313-1.219s-0.25-0.35-0.55-0.694l-0.55-0.625-0.669 0.575c-0.362 0.319-0.944 0.825-1.288 1.125-0.35 0.306-0.644 0.55-0.669 0.55s-0.15-0.206-0.281-0.45c-1.163-2.194-1.775-4.519-1.775-6.75v-0.675h3.188v-1.813h-3l0.038-0.269c0.087-0.563 0.462-1.919 0.731-2.606 0.506-1.319 1.144-2.475 1.962-3.569l0.419-0.563 2.256 2.256 1.25-1.25-1.119-1.119c-0.612-0.612-1.106-1.144-1.094-1.181 0.081-0.219 1.8-1.494 2.787-2.069 1.488-0.856 3.588-1.544 5.344-1.744l0.488-0.050 0.012 1.844 0.019 1.85h1.75l0.019-1.869 0.012-1.869 0.519 0.044c2.8 0.237 5.319 1.175 7.512 2.788 0.7 0.519 1.469 1.181 1.469 1.275 0 0.037-0.512 0.581-1.137 1.206l-1.144 1.144 1.25 1.25 1.144-1.137 1.144-1.144 0.125 0.156c0.413 0.519 1.194 1.781 1.556 2.531 0.587 1.2 1.075 2.675 1.275 3.856l0.044 0.238h-3.131v1.813h3.313v0.675c0 2.212-0.644 4.669-1.756 6.719l-0.269 0.488-2.475-2.475-0.637 0.644-0.644 0.637 2.625 2.625h2.012l0.375-0.644c2.012-3.4 2.7-7.262 1.988-11.144-0.369-1.975-1.181-4.031-2.256-5.675-2.681-4.094-6.856-6.7-11.644-7.256-0.944-0.113-2.775-0.113-3.694 0z"></path>
<path d="M12.95 15.081l-0.269 0.275 1.287 1.594c0.706 0.875 1.281 1.637 1.281 1.7 0 0.056 0.044 0.206 0.1 0.337 0.444 1.069 1.919 1.094 2.406 0.044 0.225-0.488 0.1-1.113-0.294-1.481-0.194-0.181-0.575-0.363-0.762-0.363-0.069 0-0.856-0.538-1.756-1.188-0.9-0.656-1.656-1.188-1.681-1.188s-0.169 0.119-0.313 0.269z"></path>
<path d="M8.875 29.781v0.906h14.25v-1.813h-14.25v0.906z"></path>
</symbol>
<symbol id="vector" viewBox="0 0 32 32">
<path d="M1.269 0.113c-1.55 0.556-1.706 2.706-0.238 3.419 0.894 0.444 1.95 0.138 2.438-0.706l0.188-0.319 3.119-0.006h3.119l-0.831 0.406c-0.925 0.462-1.456 0.788-2.269 1.394-0.431 0.325-0.563 0.463-0.612 0.638-0.088 0.287 0.044 0.575 0.325 0.719 0.263 0.138 0.487 0.075 0.888-0.244 1.644-1.331 4.031-2.337 6.531-2.75l0.2-0.038v0.313c0 0.381 0.1 0.606 0.319 0.725 0.25 0.125 2.862 0.125 3.112 0 0.219-0.119 0.319-0.344 0.319-0.725v-0.313l0.206 0.038c2.25 0.388 4.056 1.069 5.738 2.188 0.331 0.219 0.719 0.494 0.863 0.612 0.319 0.269 0.563 0.325 0.813 0.194 0.281-0.144 0.413-0.431 0.325-0.713-0.119-0.394-1.363-1.269-2.837-2.013l-0.863-0.431h3.113l3.113 0.006 0.188 0.319c0.581 1.006 1.962 1.212 2.863 0.431 0.575-0.513 0.756-1.481 0.4-2.206-0.65-1.319-2.531-1.394-3.262-0.125l-0.188 0.319-10.469 0.006v-0.375c0-0.2-0.031-0.444-0.075-0.531-0.144-0.313-0.3-0.344-1.8-0.344s-1.656 0.031-1.8 0.344c-0.044 0.088-0.075 0.331-0.075 0.531v0.375h-10.469l-0.15-0.281c-0.406-0.769-1.413-1.15-2.237-0.856zM2.181 1.337c0.419 0.219 0.406 0.894-0.025 1.087-0.319 0.144-0.669 0.044-0.819-0.244-0.294-0.569 0.275-1.137 0.844-0.844zM16.625 1.875v0.625h-1.25v-1.25h1.25v0.625zM30.431 1.337c0.419 0.219 0.406 0.894-0.025 1.087-0.569 0.256-1.119-0.319-0.819-0.856 0.163-0.294 0.525-0.394 0.844-0.231z"></path>
<path d="M4.694 6.338c-0.544 0.3-0.313 1.162 0.306 1.162 0.319 0 0.625-0.306 0.625-0.619 0-0.469-0.519-0.775-0.931-0.544z"></path>
<path d="M15.688 6.338c-0.113 0.063-1.019 1.669-3.338 5.919-1.756 3.206-3.2 5.9-3.213 5.988-0.012 0.1 0.4 1.281 1.106 3.156 0.625 1.644 1.131 3.025 1.131 3.063s-0.1 0.131-0.219 0.212c-0.488 0.313-0.825 1.056-0.762 1.675 0.063 0.637 0.425 1.188 0.95 1.469l0.281 0.15v1.762c0 1.231 0.025 1.813 0.075 1.925 0.156 0.35 0.088 0.344 4.3 0.344s4.144 0.006 4.3-0.344c0.050-0.113 0.075-0.694 0.075-1.925v-1.762l0.281-0.15c0.525-0.281 0.887-0.831 0.95-1.469 0.063-0.619-0.275-1.363-0.762-1.675-0.119-0.081-0.219-0.175-0.219-0.212 0-0.044 0.506-1.419 1.131-3.063 0.706-1.875 1.119-3.056 1.106-3.156-0.012-0.087-1.456-2.781-3.212-5.988-2.494-4.575-3.219-5.85-3.35-5.919-0.212-0.106-0.412-0.106-0.613 0zM15.375 12.95l-0.006 3.581-0.319 0.188c-1.269 0.731-1.194 2.613 0.125 3.262 0.294 0.144 0.438 0.175 0.825 0.175s0.531-0.031 0.825-0.175c1.319-0.65 1.394-2.531 0.125-3.262l-0.319-0.188v-3.594c0-3.1 0.012-3.575 0.087-3.438 0.044 0.088 1.069 1.956 2.275 4.156l2.188 4-0.825 0.031c-0.456 0.019-0.875 0.056-0.938 0.087-0.131 0.063-0.294 0.356-0.294 0.531 0 0.212 0.144 0.45 0.319 0.544 0.125 0.063 0.413 0.087 1.025 0.087 0.462 0 0.844 0.019 0.844 0.044 0 0.031-0.45 1.231-0.994 2.675l-0.988 2.625h-6.662l-0.988-2.625c-0.55-1.444-0.994-2.644-0.994-2.675 0-0.025 0.381-0.044 0.844-0.044 0.613 0 0.9-0.025 1.025-0.087 0.175-0.094 0.319-0.331 0.319-0.544 0-0.175-0.162-0.469-0.294-0.531-0.063-0.031-0.481-0.069-0.938-0.087l-0.825-0.031 2.262-4.137c1.244-2.281 2.269-4.144 2.281-4.144 0.006 0 0.012 1.613 0.012 3.575zM16.306 17.775c0.419 0.219 0.406 0.894-0.025 1.087-0.319 0.144-0.669 0.044-0.819-0.244-0.294-0.569 0.275-1.137 0.844-0.844zM20.031 25.637c0.181 0.081 0.344 0.344 0.344 0.55s-0.163 0.469-0.344 0.55c-0.231 0.106-7.831 0.106-8.063 0-0.431-0.194-0.444-0.856-0.025-1.087 0.206-0.113 7.838-0.125 8.088-0.012zM19.125 29.406v1.344h-6.25v-2.688h6.25v1.344z"></path>
<path d="M26.694 6.338c-0.544 0.3-0.313 1.162 0.306 1.162 0.319 0 0.625-0.306 0.625-0.619 0-0.469-0.519-0.775-0.931-0.544z"></path>
<path d="M3.294 8.406c-0.188 0.106-0.669 1.012-1.063 2.006-0.275 0.681-0.613 1.9-0.762 2.725l-0.106 0.613h-0.438c-0.494 0-0.738 0.1-0.85 0.344-0.106 0.225-0.106 2.837 0 3.063 0.144 0.313 0.3 0.344 1.8 0.344s1.656-0.031 1.8-0.344c0.112-0.25 0.106-2.856-0.013-3.088-0.119-0.219-0.344-0.319-0.731-0.319-0.288 0-0.306-0.012-0.281-0.144 0.019-0.075 0.063-0.306 0.1-0.512 0.2-1.088 0.594-2.231 1.163-3.387 0.325-0.656 0.344-0.719 0.275-0.919-0.037-0.113-0.119-0.256-0.181-0.313-0.163-0.15-0.506-0.181-0.712-0.069zM2.5 15.625v0.625h-1.25v-1.25h1.25v0.625z"></path>
<path d="M28.188 8.356c-0.169 0.063-0.306 0.219-0.375 0.431-0.069 0.2-0.050 0.262 0.275 0.919 0.569 1.156 0.962 2.3 1.163 3.388 0.038 0.206 0.081 0.438 0.1 0.512 0.025 0.131 0.006 0.144-0.281 0.144-0.387 0-0.613 0.1-0.731 0.319-0.119 0.231-0.125 2.838-0.012 3.088 0.144 0.313 0.3 0.344 1.8 0.344s1.656-0.031 1.8-0.344c0.050-0.113 0.075-0.6 0.075-1.531s-0.025-1.419-0.075-1.531c-0.113-0.244-0.356-0.344-0.856-0.344h-0.438l-0.038-0.238c-0.225-1.419-0.669-2.844-1.281-4.119-0.344-0.713-0.462-0.9-0.613-0.981-0.2-0.1-0.344-0.119-0.512-0.056zM30.75 15.625v0.625h-1.25v-1.25h1.25v0.625z"></path>
</symbol>
</defs>
</svg>
