<svg xmlns="http://www.w3.org/2000/svg" aria-hidden="true" style="position:absolute;width:0;height:0;overflow:hidden"><defs><symbol id='icon-star' xmlns="http://www.w3.org/2000/svg" viewBox="0 0 576 512"><path d="M316.9 18c-5.3-11-16.5-18-28.8-18s-23.4 7-28.8 18L195 150.3 51.4 171.5c-12 1.8-22 10.2-25.7 21.7s-.7 24.2 7.9 32.7L137.8 329l-24.6 145.7c-2 12 3 24.2 12.9 31.3s23 8 33.8 2.3l128.3-68.5 128.3 68.5c10.8 5.7 23.9 4.9 33.8-2.3s14.9-19.3 12.9-31.3L438.5 329l104.2-103.1c8.6-8.5 11.7-21.2 7.9-32.7s-13.7-19.9-25.7-21.7l-143.7-21.2L316.9 18z"/><symbol id='arrow-icon' xmlns="http://www.w3.org/2000/svg" height="1em" viewBox="0 0 512 512"><style>svg{fill:#1700f9}</style><path d="M502.6 278.6c12.5-12.5 12.5-32.8 0-45.3l-128-128c-12.5-12.5-32.8-12.5-45.3 0s-12.5 32.8 0 45.3L402.7 224 32 224c-17.7 0-32 14.3-32 32s14.3 32 32 32l370.7 0-73.4 73.4c-12.5 12.5-12.5 32.8 0 45.3s32.8 12.5 45.3 0l128-128z"/></symbol></symbol><symbol id="icon-github" viewBox="0 0 28 32"><path d="M25 2H3C1.344 2 0 3.344 0 5v22c0 1.656 1.344 3 3 3h22c1.656 0 3-1.344 3-3V5c0-1.656-1.344-3-3-3zm-7.669 23.981c-.525.094-.719-.231-.719-.5 0-.337.012-2.063.012-3.456 0-.975-.325-1.594-.706-1.919 2.313-.256 4.75-.575 4.75-4.569 0-1.137-.406-1.706-1.069-2.438.106-.269.462-1.375-.106-2.813-.869-.269-2.856 1.119-2.856 1.119-.825-.231-1.719-.35-2.6-.35s-1.775.119-2.6.35c0 0-1.988-1.387-2.856-1.119-.569 1.431-.219 2.537-.106 2.813-.662.731-.975 1.3-.975 2.438 0 3.975 2.331 4.313 4.644 4.569-.3.269-.569.731-.662 1.394-.594.269-2.112.731-3.019-.869-.569-.988-1.594-1.069-1.594-1.069-1.013-.012-.069.637-.069.637.675.313 1.15 1.512 1.15 1.512.606 1.856 3.506 1.231 3.506 1.231 0 .869.012 2.281.012 2.538 0 .269-.188.594-.719.5-4.125-1.381-7.013-5.306-7.013-9.894 0-5.738 4.388-10.094 10.125-10.094s10.387 4.356 10.387 10.094c.006 4.587-2.794 8.519-6.919 9.894zM11.2 22.163c-.119.025-.231-.025-.244-.106-.012-.094.069-.175.188-.2.119-.012.231.038.244.119.019.081-.063.163-.188.188zm-.594-.057c0 .081-.094.15-.219.15-.137.012-.231-.056-.231-.15 0-.081.094-.15.219-.15.119-.012.231.056.231.15zm-.856-.068c-.025.081-.15.119-.256.081-.119-.025-.2-.119-.175-.2s.15-.119.256-.094c.125.038.206.131.175.212zm-.769-.338c-.056.069-.175.056-.269-.038-.094-.081-.119-.2-.056-.256.056-.069.175-.056.269.038.081.081.113.206.056.256zm-.569-.569c-.056.038-.162 0-.231-.094s-.069-.2 0-.244c.069-.056.175-.012.231.081.069.094.069.206 0 .256zm-.406-.606c-.056.056-.15.025-.219-.038-.069-.081-.081-.175-.025-.219.056-.056.15-.025.219.038.069.081.081.175.025.219zm-.418-.462c-.025.056-.106.069-.175.025-.081-.038-.119-.106-.094-.163.025-.038.094-.056.175-.025.081.044.119.113.094.163z"/></symbol><symbol id="icon-hashtag" viewBox="0 0 28 32"><path d="M11.331 2.025a2 2 0 0 1 1.644 2.3L12.362 8h5.944l.719-4.331c.181-1.087 1.212-1.825 2.3-1.644a2 2 0 0 1 1.644 2.3L22.363 8H26c1.106 0 2 .894 2 2s-.894 2-2 2h-4.306l-1.331 8H24c1.106 0 2 .894 2 2s-.894 2-2 2h-4.306l-.719 4.331c-.181 1.087-1.212 1.825-2.3 1.644a2 2 0 0 1-1.644-2.3l.613-3.669h-5.95l-.719 4.331c-.181 1.087-1.213 1.825-2.3 1.644s-1.825-1.212-1.644-2.3L5.637 24H1.999c-1.106 0-2-.894-2-2s.894-2 2-2h4.306l1.331-8H3.998c-1.106 0-2-.894-2-2s.894-2 2-2h4.306l.719-4.331a2.002 2.002 0 0 1 2.3-1.644zM11.694 12l-1.331 8h5.944l1.331-8h-5.944z"/></symbol><symbol id="icon-twitter" viewBox="0 0 32 32"><path d="M28.711 9.482c.02.284.02.569.02.853 0 8.67-6.599 18.66-18.66 18.66A18.53 18.53 0 0 1 0 26.051c.528.061 1.036.081 1.584.081 3.066 0 5.888-1.035 8.142-2.802a6.57 6.57 0 0 1-6.132-4.548c.406.061.812.102 1.239.102.589 0 1.178-.081 1.726-.223A6.56 6.56 0 0 1 1.3 12.224v-.081a6.6 6.6 0 0 0 2.964.832A6.556 6.556 0 0 1 1.34 7.513c0-1.218.325-2.335.893-3.31a18.639 18.639 0 0 0 13.523 6.863 7.437 7.437 0 0 1-.162-1.502 6.555 6.555 0 0 1 6.558-6.558c1.888 0 3.594.792 4.792 2.071a12.88 12.88 0 0 0 4.162-1.584 6.539 6.539 0 0 1-2.883 3.614A13.168 13.168 0 0 0 32 6.092a14.103 14.103 0 0 1-3.289 3.391z"/></symbol><symbol id="icon-facebook" viewBox="0 0 20 32"><path d="m17.446 18 .889-5.791h-5.557V8.451c0-1.584.776-3.129 3.265-3.129h2.526V.391S16.276 0 14.085 0C9.509 0 6.518 2.774 6.518 7.795v4.414H1.431V18h5.087v14h6.261V18z"/></symbol></defs></svg>

